<svg width="375" height="509" viewBox="0 0 375 509" fill="none" xmlns="http://www.w3.org/2000/svg">
<g clip-path="url(#clip0_630_3137)">
<path opacity="0.887154" d="M65.0603 93.7794C68.6138 94.3447 71.9852 96.2467 74.2943 99.0063C76.5049 101.648 76.6713 105.302 77.4997 108.646C78.2808 111.799 79.9627 114.992 79.0252 118.103C78.0973 121.182 74.4937 122.47 72.5588 125.039C70.3475 127.974 70.3751 133.192 66.857 134.255C63.3283 135.321 60.395 131.098 56.9642 129.75C54.1442 128.641 51.0433 128.599 48.4554 127.023C45.4935 125.219 42.1624 123.292 40.9973 120.026C39.8274 116.746 40.7378 112.941 42.3275 109.843C43.7795 107.013 47.2567 106.03 49.3892 103.67C51.5516 101.277 52.1785 97.6433 54.9062 95.9218C57.8822 94.0436 61.5848 93.2264 65.0603 93.7794Z" fill="#F2F7FD"/>
<path d="M309.695 331.578C313.038 334.721 315.693 338.714 315.853 343.3C316.003 347.575 312.84 350.844 310.493 354.421C307.788 358.542 306.277 364.746 301.384 365.347C296.492 365.949 293.816 359.947 289.901 356.952C285.912 353.901 279.839 352.766 278.579 347.905C277.257 342.804 280.621 337.801 283.858 333.644C287.099 329.482 291.143 325.437 296.402 325.017C301.522 324.608 305.952 328.06 309.695 331.578Z" fill="#F2F7FD"/>
<path d="M89.29 200.459C99.7144 201.915 106.703 211.756 105.247 222.18C103.709 233.195 94.6768 242.297 83.6616 240.759C71.9699 239.126 63.8276 228.315 65.4605 216.623C67.0159 205.487 78.1531 198.904 89.29 200.459Z" fill="#F2F7FD"/>
<path opacity="0.4" d="M300.397 206.29C303.119 206.208 305.975 205.287 308.477 206.363C311.01 207.451 313.063 209.702 314.187 212.219C315.298 214.707 314.331 217.588 314.695 220.289C315.077 223.121 316.882 225.781 316.394 228.597C315.899 231.459 313.962 233.877 311.976 235.996C309.993 238.113 307.756 240.455 304.886 240.877C301.966 241.307 299.399 238.944 296.525 238.27C294.236 237.733 291.705 238.374 289.615 237.295C287.539 236.223 286.733 233.649 284.864 232.247C282.462 230.444 277.892 230.788 277.089 227.894C276.274 224.958 280.894 222.973 281.459 219.979C281.974 217.247 278.871 214.323 280.118 211.838C281.329 209.424 284.777 209.238 287.314 208.31C289.445 207.53 291.633 207.148 293.876 206.802C296.054 206.466 298.193 206.356 300.397 206.29Z" fill="#90BDE9"/>
<path opacity="0.657273" d="M223.573 477.814C229.646 487.014 227.909 499.546 218.709 505.62C209.515 511.69 197.318 508.351 191.248 499.157C185.091 489.831 186.463 477.062 195.788 470.904C205.119 464.744 217.412 468.484 223.573 477.814Z" fill="#F2F7FD"/>
<path opacity="0.4" d="M378.551 473.437C386.671 478.24 387.592 489.1 382.788 497.22C377.655 505.897 367.492 511.933 358.814 506.799C349.009 500.998 345.521 488.41 351.322 478.605C356.833 469.289 369.236 467.926 378.551 473.437Z" fill="#90BDE9"/>
<path d="M152.579 132.484C155.915 133.188 158.974 134.887 161.432 137.25C164.014 139.733 166.216 142.763 166.92 146.275C167.625 149.791 166.724 153.424 165.337 156.732C164.007 159.906 161.686 162.448 159.16 164.787C156.576 167.178 153.863 169.505 150.481 170.484C146.946 171.507 142.928 172.07 139.63 170.439C136.388 168.835 135.575 164.657 133.196 161.934C130.818 159.212 126.434 157.946 125.635 154.421C124.837 150.903 127.782 147.716 129.223 144.41C130.549 141.367 131.168 137.803 133.772 135.745C136.348 133.71 139.928 133.955 143.163 133.394C146.324 132.846 149.44 131.822 152.579 132.484Z" fill="#C4DBF3"/>
<path opacity="0.867402" d="M327.75 88.0943C333.06 91.6091 337.006 97.0702 337.487 103.42C337.977 109.891 335.09 116.164 330.199 120.43C325.397 124.619 318.924 126.143 312.638 125.096C306.348 124.049 300.705 120.516 297.522 114.99C294.279 109.361 293.557 102.462 296.172 96.5151C298.718 90.7275 304.366 87.1683 310.475 85.5391C316.393 83.9611 322.643 84.7139 327.75 88.0943Z" fill="#F2F7FD"/>
<path opacity="0.938031" d="M5.6414 194.797C8.94453 195.744 12.3948 196.572 14.8923 198.932C17.5133 201.409 19.4896 204.718 19.9286 208.297C20.3599 211.815 18.7569 215.184 17.2806 218.406C15.8956 221.428 13.948 224.035 11.626 226.414C9.10882 228.992 6.74365 232.354 3.17518 232.857C-0.390121 233.36 -3.40225 230.406 -6.71739 229.001C-9.84171 227.676 -13.3114 227.114 -15.8055 224.813C-18.4554 222.368 -20.49 219.183 -21.1923 215.647C-21.9002 212.083 -21.0999 208.399 -19.7342 205.031C-18.3997 201.741 -16.359 198.713 -13.4808 196.634C-10.7012 194.626 -7.26206 193.886 -3.84902 193.558C-0.618298 193.248 2.52152 193.902 5.6414 194.797Z" fill="#90BDE9"/>
<path d="M9.1206 453.414C11.9816 453.677 15.0731 450.969 17.5813 452.37C20.0715 453.761 19.3262 457.821 21.0619 460.085C22.8674 462.439 26.9446 462.891 27.8221 465.725C28.6747 468.479 26.5222 471.281 25.3426 473.911C24.3044 476.226 23.0196 478.396 21.3022 480.264C19.6782 482.03 17.6329 483.254 15.5917 484.514C13.4995 485.806 11.4767 487.251 9.08206 487.811C6.56106 488.4 3.90623 488.481 1.40005 487.832C-1.16426 487.167 -3.40884 485.684 -5.48318 484.037C-7.63436 482.328 -9.6266 480.404 -10.9692 478.008C-12.367 475.512 -13.8814 472.702 -13.4133 469.881C-12.9399 467.028 -9.64323 465.513 -8.45837 462.875C-7.27109 460.231 -8.32015 456.76 -6.50559 454.501C-4.70959 452.265 -1.67292 451.062 1.18835 450.863C3.98966 450.669 6.32429 453.157 9.1206 453.414Z" fill="#F2F7FD"/>
<path opacity="0.4528" d="M56.1859 303.916C61.1375 305.888 65.2031 310.105 66.5798 315.254C67.9854 320.511 66.7336 326.375 63.3248 330.617C60.2134 334.488 54.9105 335.168 49.9963 335.889C45.6601 336.526 41.1438 336.752 37.4348 334.417C33.7588 332.103 32.0377 327.952 30.7808 323.794C29.416 319.279 27.4923 314.12 30.1136 310.199C32.703 306.326 38.2866 306.882 42.8161 305.791C47.3642 304.695 51.8396 302.186 56.1859 303.916Z" fill="#90BDE9"/>
<path d="M234.56 -0.381575C238.142 9.01841 235.615 20.4057 226.215 23.9878C215.564 28.0465 203.185 23.7719 199.126 13.1209C195.257 2.96649 202.695 -7.21634 212.849 -11.0859C221.683 -14.452 231.194 -9.21496 234.56 -0.381575Z" fill="#F4F8FD"/>
<path opacity="0.6" d="M383.662 257.125C386.517 258.447 388.359 261.434 389.561 264.342C390.634 266.935 389.955 269.835 390.08 272.638C390.176 274.8 390.599 276.918 390.215 279.048C389.84 281.125 389.055 283.096 387.877 284.848C386.707 286.59 385.047 287.857 383.412 289.172C381.592 290.636 379.812 292.089 377.682 293.046C375.03 294.239 372.259 296.071 369.414 295.468C366.609 294.873 364.169 292.534 362.976 289.926C361.796 287.347 363.215 284.354 363.034 281.523C362.899 279.409 362.494 277.395 362.042 275.325C361.377 272.284 359.127 269.453 359.728 266.398C360.329 263.341 362.607 260.65 365.253 259.003C367.905 257.353 371.24 257.617 374.347 257.3C377.476 256.981 380.808 255.804 383.662 257.125Z" fill="#90BDE9"/>
</g>
<defs>
<clipPath id="clip0_630_3137">
<rect width="375" height="509" fill="white"/>
</clipPath>
</defs>
</svg>
