<svg width="26" height="26" viewBox="0 0 26 26" fill="none" xmlns="http://www.w3.org/2000/svg">
<mask id="mask0_667_9319" style="mask-type:alpha" maskUnits="userSpaceOnUse" x="0" y="0" width="26" height="26">
<circle cx="13" cy="13" r="13" fill="#D9D9D9"/>
</mask>
<g mask="url(#mask0_667_9319)">
<g clip-path="url(#clip0_667_9319)">
<path d="M-4.3335 0H30.3332V26H-4.3335" fill="#BD3D44"/>
<path d="M-4.3335 2.99536H30.3332H-4.3335ZM-4.3335 6.98744H30.3332H-4.3335ZM-4.3335 10.9958H30.3332H-4.3335ZM-4.3335 15.0041H30.3332H-4.3335ZM-4.3335 19.0124H30.3332H-4.3335ZM-4.3335 23.0208H30.3332H-4.3335Z" fill="black"/>
<path d="M-4.3335 1.99341V3.99758H30.3332V1.99341H-4.3335ZM-4.3335 5.98549V7.98966H30.3332V5.98549H-4.3335ZM-4.3335 9.99382V11.998H30.3332V9.99382H-4.3335ZM-4.3335 14.0022V16.0063H30.3332V14.0022H-4.3335ZM-4.3335 18.0105V20.0147H30.3332V18.0105H-4.3335ZM-4.3335 22.0188V24.023H30.3332V22.0188H-4.3335Z" fill="white"/>
<path d="M-4.3335 0H15.4265V14.0021H-4.3335" fill="#192F5D"/>
<path d="M13.7582 11.8084L14.2457 13.2709L12.9999 12.3501H14.5165L13.2707 13.2709L13.7582 11.8084ZM10.5082 11.8084L10.9957 13.2709L9.74987 12.3501H11.2665L10.0207 13.2709L10.5082 11.8084ZM7.20403 11.8084L7.69153 13.2709L6.4457 12.3501H7.96237L6.71653 13.2709L7.20403 11.8084ZM3.89987 11.8084L4.38737 13.2709L3.14154 12.3501H4.6582L3.41237 13.2709L3.89987 11.8084ZM0.595702 11.8084L1.0832 13.2709L-0.162631 12.3501H1.35404L0.108202 13.2709L0.595702 11.8084ZM-2.70846 11.8084L-2.22096 13.2709L-3.4668 12.3501H-1.95013L-3.19596 13.2709L-2.70846 11.8084ZM12.1332 10.4001L12.6207 11.8626L11.3749 10.9418H12.8915L11.6457 11.8626L12.1332 10.4001ZM8.82903 10.4001L9.31653 11.8626L8.0707 10.9418H9.58737L8.34153 11.8626L8.82903 10.4001ZM5.57903 10.4001L6.06653 11.8626L4.8207 10.9418H6.33737L5.09153 11.8626L5.57903 10.4001ZM2.27487 10.4001L2.76237 11.8626L1.51654 10.9418H3.0332L1.78737 11.8626L2.27487 10.4001ZM-1.0293 10.4001L-0.541797 11.8626L-1.78763 10.9418H-0.270964L-1.5168 11.8626L-1.0293 10.4001ZM13.7582 8.99178L14.2457 10.4543L12.9999 9.53345H14.5165L13.2707 10.4543L13.7582 8.99178ZM10.5082 8.99178L10.9957 10.4543L9.74987 9.53345H11.2665L10.0207 10.4543L10.5082 8.99178ZM7.20403 8.99178L7.69153 10.4543L6.4457 9.53345H7.96237L6.71653 10.4543L7.20403 8.99178ZM3.89987 8.99178L4.38737 10.4543L3.14154 9.53345H4.6582L3.41237 10.4543L3.89987 8.99178ZM0.595702 8.99178L1.0832 10.4543L-0.162631 9.53345H1.35404L0.108202 10.4543L0.595702 8.99178ZM-2.70846 8.99178L-2.22096 10.4543L-3.4668 9.53345H-1.95013L-3.19596 10.4543L-2.70846 8.99178ZM12.1332 7.63761L12.6207 9.10011L11.3749 8.17928H12.8915L11.6457 9.10011L12.1332 7.63761ZM8.82903 7.63761L9.31653 9.10011L8.0707 8.17928H9.58737L8.34153 9.10011L8.82903 7.63761ZM5.57903 7.63761L6.06653 9.10011L4.8207 8.17928H6.33737L5.09153 9.10011L5.57903 7.63761ZM2.27487 7.63761L2.76237 9.10011L1.51654 8.17928H3.0332L1.78737 9.10011L2.27487 7.63761ZM-1.0293 7.63761L-0.541797 9.10011L-1.78763 8.17928H-0.270964L-1.5168 9.10011L-1.0293 7.63761ZM13.7582 6.22928L14.2457 7.69178L12.9999 6.77095H14.5165L13.2707 7.69178L13.7582 6.22928ZM10.5082 6.22928L10.9957 7.69178L9.74987 6.77095H11.2665L10.0207 7.69178L10.5082 6.22928ZM7.20403 6.22928L7.69153 7.69178L6.4457 6.77095H7.96237L6.71653 7.69178L7.20403 6.22928ZM3.89987 6.22928L4.38737 7.69178L3.14154 6.77095H4.6582L3.41237 7.69178L3.89987 6.22928ZM0.595702 6.22928L1.0832 7.69178L-0.162631 6.77095H1.35404L0.108202 7.69178L0.595702 6.22928ZM-2.70846 6.22928L-2.22096 7.69178L-3.4668 6.77095H-1.95013L-3.19596 7.69178L-2.70846 6.22928ZM12.1332 4.82095L12.6207 6.28345L11.3749 5.36261H12.8915L11.6457 6.28345L12.1332 4.82095ZM8.82903 4.82095L9.31653 6.28345L8.0707 5.36261H9.58737L8.34153 6.28345L8.82903 4.82095ZM5.57903 4.82095L6.06653 6.28345L4.8207 5.36261H6.33737L5.09153 6.28345L5.57903 4.82095ZM2.27487 4.82095L2.76237 6.28345L1.51654 5.36261H3.0332L1.78737 6.28345L2.27487 4.82095ZM-1.0293 4.82095L-0.541797 6.28345L-1.78763 5.36261H-0.270964L-1.5168 6.28345L-1.0293 4.82095ZM13.7582 3.41261L14.2457 4.87511L12.9999 3.95428H14.5165L13.2707 4.87511L13.7582 3.41261ZM10.5082 3.41261L10.9957 4.87511L9.74987 3.95428H11.2665L10.0207 4.87511L10.5082 3.41261ZM7.20403 3.41261L7.69153 4.87511L6.4457 3.95428H7.96237L6.71653 4.87511L7.20403 3.41261ZM3.89987 3.41261L4.38737 4.87511L3.14154 3.95428H4.6582L3.41237 4.87511L3.89987 3.41261ZM0.595702 3.41261L1.0832 4.87511L-0.162631 3.95428H1.35404L0.108202 4.87511L0.595702 3.41261ZM-2.70846 3.41261L-2.22096 4.87511L-3.4668 3.95428H-1.95013L-3.19596 4.87511L-2.70846 3.41261ZM12.1332 2.00428L12.6207 3.46678L11.3749 2.54595H12.8915L11.6457 3.46678L12.1332 2.00428ZM8.82903 2.00428L9.31653 3.46678L8.0707 2.54595H9.58737L8.34153 3.46678L8.82903 2.00428ZM5.57903 2.00428L6.06653 3.46678L4.8207 2.54595H6.33737L5.09153 3.46678L5.57903 2.00428ZM2.27487 2.00428L2.76237 3.46678L1.51654 2.54595H3.0332L1.78737 3.46678L2.27487 2.00428ZM-1.0293 2.00428L-0.541797 3.46678L-1.78763 2.54595H-0.270964L-1.5168 3.46678L-1.0293 2.00428ZM13.7582 0.595947L14.2457 2.05845L12.9999 1.13761H14.5165L13.2707 2.05845L13.7582 0.595947ZM10.5082 0.595947L10.9957 2.05845L9.74987 1.13761H11.2665L10.0207 2.05845L10.5082 0.595947ZM7.20403 0.595947L7.69153 2.05845L6.4457 1.13761H7.96237L6.71653 2.05845L7.20403 0.595947ZM3.89987 0.595947L4.38737 2.05845L3.14154 1.13761H4.6582L3.41237 2.05845L3.89987 0.595947ZM0.595702 0.595947L1.0832 2.05845L-0.162631 1.13761H1.35404L0.108202 2.05845L0.595702 0.595947ZM-2.70846 0.595947L-2.22096 2.05845L-3.4668 1.13761H-1.95013L-3.19596 2.05845L-2.70846 0.595947Z" fill="white"/>
</g>
</g>
<defs>
<clipPath id="clip0_667_9319">
<rect width="34.6667" height="26" fill="white" transform="translate(-4.3335)"/>
</clipPath>
</defs>
</svg>
