<svg width="60" height="59" viewBox="0 0 60 59" fill="none" xmlns="http://www.w3.org/2000/svg">
<rect x="0.822266" width="59" height="59" rx="10" fill="#E4EDFA"/>
<path d="M18.6555 41.167C18.6555 36.0123 22.8342 31.8337 27.9889 31.8337C33.1435 31.8337 37.3222 36.0123 37.3222 41.167H34.9888C34.9888 37.301 31.8548 34.167 27.9889 34.167C24.1229 34.167 20.9889 37.301 20.9889 41.167H18.6555ZM27.9889 30.667C24.1214 30.667 20.9889 27.5345 20.9889 23.667C20.9889 19.7995 24.1214 16.667 27.9889 16.667C31.8564 16.667 34.9888 19.7995 34.9888 23.667C34.9888 27.5345 31.8564 30.667 27.9889 30.667ZM27.9889 28.3337C30.5672 28.3337 32.6555 26.2453 32.6555 23.667C32.6555 21.0887 30.5672 19.0003 27.9889 19.0003C25.4105 19.0003 23.3222 21.0887 23.3222 23.667C23.3222 26.2453 25.4105 28.3337 27.9889 28.3337ZM37.6532 32.6536C40.8973 34.1158 43.1555 37.3777 43.1555 41.167H40.8222C40.8222 38.325 39.1285 35.8786 36.6954 34.7819L37.6532 32.6536ZM36.8511 19.4824C39.1823 20.4435 40.8222 22.7379 40.8222 25.417C40.8222 28.7656 38.2604 31.5131 34.9888 31.8075V29.459C36.9683 29.1762 38.4888 27.475 38.4888 25.417C38.4888 23.8062 37.5574 22.414 36.2034 21.7494L36.8511 19.4824Z" fill="#1A3A60"/>
</svg>
