<svg width="13" height="16" viewBox="0 0 13 16" fill="none" xmlns="http://www.w3.org/2000/svg">
<path d="M12.022 0.277344V1.77734H10.522V4.02734C11.7646 4.02734 12.772 5.03471 12.772 6.27734V14.5273C12.772 14.9416 12.4362 15.2773 12.022 15.2773H1.52197C1.10776 15.2773 0.771973 14.9416 0.771973 14.5273V6.27734C0.771973 5.03471 1.77934 4.02734 3.02197 4.02734V1.77734H1.52197V0.277344H12.022ZM10.522 5.52734H3.02197C2.60776 5.52734 2.27197 5.86313 2.27197 6.27734V13.7773H11.272V6.27734C11.272 5.86313 10.9362 5.52734 10.522 5.52734ZM7.52197 7.02734V8.52734H9.02197V10.0273H7.52122L7.52197 11.5273H6.02197L6.02122 10.0273H4.52197V8.52734H6.02197V7.02734H7.52197ZM9.02197 1.77734H4.52197V4.02734H9.02197V1.77734Z" fill="#E53935"/>
</svg>
