<svg width="18" height="19" viewBox="0 0 18 19" fill="none" xmlns="http://www.w3.org/2000/svg">
<path d="M7.71758 3.37147L1.36508 13.9765C1.2341 14.2033 1.1648 14.4604 1.16407 14.7224C1.16334 14.9843 1.23119 15.2418 1.3609 15.4694C1.4906 15.6969 1.67762 15.8865 1.90336 16.0194C2.12909 16.1522 2.38568 16.2236 2.64758 16.2265H15.3526C15.6145 16.2236 15.8711 16.1522 16.0968 16.0194C16.3225 15.8865 16.5096 15.6969 16.6393 15.4694C16.769 15.2418 16.8368 14.9843 16.8361 14.7224C16.8354 14.4604 16.7661 14.2033 16.6351 13.9765L10.2826 3.37147C10.1489 3.15105 9.96062 2.96881 9.73597 2.84233C9.51133 2.71586 9.25788 2.64941 9.00008 2.64941C8.74228 2.64941 8.48883 2.71586 8.26418 2.84233C8.03954 2.96881 7.85128 3.15105 7.71758 3.37147Z" stroke="#EA7D00" stroke-width="1.7" stroke-linecap="round" stroke-linejoin="round"/>
<path d="M9 7.22656V10.2266" stroke="#EA7D00" stroke-width="1.7" stroke-linecap="round" stroke-linejoin="round"/>
<path d="M9 13.2266H9.00667" stroke="#EA7D00" stroke-width="1.5" stroke-linecap="round" stroke-linejoin="round"/>
</svg>
