<svg width="18" height="19" viewBox="0 0 18 19" fill="none" xmlns="http://www.w3.org/2000/svg">
<g clip-path="url(#clip0_93_1383)">
<path d="M14.3311 17.748C13.2972 18.6979 12.1685 18.5479 11.0819 18.098C9.93206 17.638 8.87714 17.618 7.66399 18.098C6.14491 18.7179 5.34317 18.5379 4.43595 17.748C-0.712047 12.7187 0.047493 5.05964 5.89173 4.77967C7.31587 4.84966 8.30749 5.51958 9.14087 5.57957C10.3857 5.3396 11.5777 4.64969 12.9069 4.73968C14.4998 4.85966 15.7025 5.45958 16.4936 6.53945C13.2023 8.40921 13.9829 12.5187 17 13.6685C16.3987 15.1684 15.6181 16.6582 14.3205 17.758L14.3311 17.748ZM9.03538 4.71968C8.87714 2.48996 10.7865 0.650192 12.9808 0.470215C13.2867 3.04989 10.5123 4.96965 9.03538 4.71968Z" fill="#1D1D1D"/>
</g>
<defs>
<clipPath id="clip0_93_1383">
<rect width="18" height="18" fill="white" transform="translate(0 0.470215)"/>
</clipPath>
</defs>
</svg>
