<svg width="18" height="17" viewBox="0 0 18 17" fill="none" xmlns="http://www.w3.org/2000/svg">
<path d="M15.6666 8.3492C15.6666 4.6673 12.6819 1.68254 8.99996 1.68254C5.31806 1.68254 2.33329 4.6673 2.33329 8.3492C2.33329 12.0311 5.31806 15.0159 8.99996 15.0159C10.3681 15.0159 11.64 14.6037 12.6984 13.8968L13.623 15.2837C12.3001 16.1674 10.7102 16.6825 8.99996 16.6825C4.39758 16.6825 0.666626 12.9515 0.666626 8.3492C0.666626 3.74683 4.39758 0.0158691 8.99996 0.0158691C13.6023 0.0158691 17.3333 3.74683 17.3333 8.3492V9.5992C17.3333 11.21 16.0275 12.5159 14.4166 12.5159C13.4131 12.5159 12.528 12.009 12.0031 11.2375C11.2451 12.0255 10.1798 12.5159 8.99996 12.5159C6.69878 12.5159 4.83329 10.6504 4.83329 8.3492C4.83329 6.04802 6.69878 4.18254 8.99996 4.18254C9.93813 4.18254 10.8039 4.49261 11.5004 5.01587H13.1666V9.5992C13.1666 10.2895 13.7263 10.8492 14.4166 10.8492C15.107 10.8492 15.6666 10.2895 15.6666 9.5992V8.3492ZM8.99996 5.8492C7.61921 5.8492 6.49996 6.96845 6.49996 8.3492C6.49996 9.72995 7.61921 10.8492 8.99996 10.8492C10.3807 10.8492 11.5 9.72995 11.5 8.3492C11.5 6.96845 10.3807 5.8492 8.99996 5.8492Z" fill="#12253F"/>
</svg>
