<svg width="69" height="68" viewBox="0 0 69 68" fill="none" xmlns="http://www.w3.org/2000/svg">
<rect x="0.789062" width="68" height="68" rx="34" fill="#E4EDFA"/>
<path d="M22.1226 49.833C22.1226 42.8374 27.7936 37.1663 34.7892 37.1663C41.7849 37.1663 47.4559 42.8374 47.4559 49.833H44.2892C44.2892 44.5863 40.0359 40.333 34.7892 40.333C29.5425 40.333 25.2892 44.5863 25.2892 49.833H22.1226ZM34.7892 35.583C29.5405 35.583 25.2892 31.3318 25.2892 26.083C25.2892 20.8343 29.5405 16.583 34.7892 16.583C40.038 16.583 44.2892 20.8343 44.2892 26.083C44.2892 31.3318 40.038 35.583 34.7892 35.583ZM34.7892 32.4163C38.2884 32.4163 41.1226 29.5822 41.1226 26.083C41.1226 22.5838 38.2884 19.7497 34.7892 19.7497C31.2901 19.7497 28.4559 22.5838 28.4559 26.083C28.4559 29.5822 31.2901 32.4163 34.7892 32.4163Z" fill="#4693D9"/>
</svg>
