<svg width="19" height="19" viewBox="0 0 19 19" fill="none" xmlns="http://www.w3.org/2000/svg">
<path d="M15.7888 13.1621C15.925 12.7325 16.048 12.1475 16.048 11.3945C16.048 10.8389 15.9292 9.25071 15.8926 8.77671C16.2082 8.42571 16.372 8.01411 16.372 7.53771V5.02191C16.372 4.08351 15.1918 3.70971 14.977 3.64911C14.8366 3.58971 14.4598 3.49971 13.3252 3.41271C12.559 3.12411 12.5614 3.11511 12.2368 2.86251C10.6714 1.64451 9.53856 1.31151 7.71756 2.88831C7.18176 3.20151 6.69636 2.89131 6.14736 3.43191L4.24596 3.95511C4.20156 3.97551 3.17196 4.46631 3.17196 5.62191V7.53711C3.17196 7.88271 3.25776 8.19471 3.42396 8.47431C3.51456 9.56151 3.17196 10.9499 3.17196 11.7389C3.17196 12.0287 3.34416 12.3233 3.58596 12.5963C3.37416 13.2497 2.57196 14.2763 2.57196 14.9663C2.57196 15.5537 2.71356 16.2281 3.81576 16.2281C4.60116 16.2281 5.43096 15.9377 5.87856 15.9377C6.21816 15.9377 8.73936 16.2281 9.56796 16.2281C11.3656 16.2281 13.2304 15.9515 13.4026 15.9257C14.0536 15.8657 14.4508 16.2269 15.0694 16.2269C16.6426 16.2269 16.9726 15.6509 16.9726 15.1679C16.972 14.5343 16.1632 13.7087 15.7888 13.1621ZM15.637 6.42291C15.6898 6.40371 15.733 6.36711 15.7672 6.32271C15.7672 6.32271 15.7702 6.32031 15.772 6.31911V7.53771C15.772 8.22231 15.238 8.68791 14.4526 9.00171C14.6554 8.29071 14.662 7.53771 14.1442 7.00551C14.7418 6.88731 15.2524 6.70191 15.637 6.42291ZM15.703 5.42691C15.5146 5.08371 15.1792 4.89891 14.9644 4.84191C14.7814 4.78311 14.5198 4.34391 14.3722 4.12551C15.2134 4.25151 15.994 4.62471 15.703 5.42691ZM3.77196 5.62191C3.77196 4.85871 4.46256 4.51671 4.45116 4.51671L5.53656 4.22031C5.41596 4.37511 5.28696 4.51371 5.12196 4.60851C4.77816 4.80651 5.07756 5.32611 5.42196 5.12811C6.08076 4.74891 6.30156 3.99891 6.70956 3.74091C6.86976 3.63951 7.52376 3.69591 8.02056 3.40671C8.19936 3.30171 8.99376 2.42751 10.0666 2.42751C10.7008 2.42751 11.4316 2.99631 11.8684 3.33651C12.1828 3.58131 12.2452 3.64911 13.0204 3.93891C13.2844 4.03791 13.6462 4.17291 13.7296 4.26411C13.9876 4.54551 14.266 5.24691 14.7922 5.41671C14.8708 5.43951 15.2296 5.56971 15.2386 5.98431C13.9516 6.84591 7.13316 6.92871 4.81056 5.88231C4.44816 5.72031 4.20216 6.26691 4.56456 6.42951C6.54996 7.32291 11.3254 7.32291 13.2292 7.13811C14.2924 7.35171 13.996 8.95551 13.6678 9.24951C12.4378 9.55611 10.9102 9.62751 9.77256 9.62751C7.53156 9.62751 3.77256 9.35571 3.77256 7.53831L3.77196 5.62191ZM15.0688 15.6269C14.6116 15.6269 14.1136 15.2555 13.3438 15.3281C13.3408 15.3287 13.3378 15.3305 13.3348 15.3311C13.3318 15.3317 13.3294 15.3305 13.3264 15.3305C13.3072 15.3335 11.3686 15.6281 9.56796 15.6281C8.67456 15.6281 6.39756 15.3377 5.87856 15.3377C5.40576 15.3377 4.47336 15.6281 3.81576 15.6281C3.26076 15.6281 3.17196 15.4709 3.17196 14.9663C3.17196 14.5691 3.76836 13.6847 4.05576 13.0403C4.49556 13.3997 4.96656 13.6727 5.12676 13.7615C5.47296 13.9511 5.76696 13.4303 5.41716 13.2365C4.75356 12.8687 3.77196 12.1385 3.77196 11.7389C3.77196 11.2313 3.99456 10.0727 4.03176 9.11571C5.04816 9.85311 6.96396 10.2275 9.77196 10.2275C12.4174 10.2275 14.2696 9.89511 15.3256 9.23991C15.3742 9.90231 15.448 10.9775 15.448 11.3951C15.448 12.8687 14.9302 13.6499 14.9254 13.6565C14.6968 13.9877 15.1942 14.3195 15.4186 13.9985C15.4252 13.9895 15.4666 13.9271 15.5254 13.8155C15.7354 14.0843 16.372 14.8547 16.372 15.1679C16.372 15.5939 15.3748 15.6269 15.0688 15.6269Z" fill="#1A1A1A" stroke="#1A1A1A" stroke-width="0.2"/>
<path d="M8.87196 4.22793C9.03765 4.22793 9.17196 4.09362 9.17196 3.92793C9.17196 3.76224 9.03765 3.62793 8.87196 3.62793C8.70628 3.62793 8.57196 3.76224 8.57196 3.92793C8.57196 4.09362 8.70628 4.22793 8.87196 4.22793Z" fill="#1A1A1A"/>
<path d="M8.87196 6.02773C9.03765 6.02773 9.17196 5.89342 9.17196 5.72773C9.17196 5.56205 9.03765 5.42773 8.87196 5.42773C8.70628 5.42773 8.57196 5.56205 8.57196 5.72773C8.57196 5.89342 8.70628 6.02773 8.87196 6.02773Z" fill="#1A1A1A"/>
<path d="M10.072 5.42715C10.2377 5.42715 10.372 5.29283 10.372 5.12715C10.372 4.96146 10.2377 4.82715 10.072 4.82715C9.90629 4.82715 9.77197 4.96146 9.77197 5.12715C9.77197 5.29283 9.90629 5.42715 10.072 5.42715Z" fill="#1A1A1A"/>
<path d="M7.07197 4.82754C7.23766 4.82754 7.37197 4.69322 7.37197 4.52754C7.37197 4.36185 7.23766 4.22754 7.07197 4.22754C6.90629 4.22754 6.77197 4.36185 6.77197 4.52754C6.77197 4.69322 6.90629 4.82754 7.07197 4.82754Z" fill="#1A1A1A"/>
<path d="M7.07197 6.02773C7.23766 6.02773 7.37197 5.89342 7.37197 5.72773C7.37197 5.56205 7.23766 5.42773 7.07197 5.42773C6.90629 5.42773 6.77197 5.56205 6.77197 5.72773C6.77197 5.89342 6.90629 6.02773 7.07197 6.02773Z" fill="#1A1A1A"/>
</svg>
