<svg width="18" height="19" viewBox="0 0 18 19" fill="none" xmlns="http://www.w3.org/2000/svg">
<path d="M7.68745 1.12012C8.06589 1.12 8.43038 1.26292 8.70787 1.52024C8.98535 1.77756 9.15532 2.13025 9.1837 2.50762L9.18745 2.62012V2.99512C9.18745 3.98287 9.4732 4.94812 10.008 5.77387L10.1355 5.96137L10.173 6.01537C10.9428 7.09667 11.3807 8.37901 11.433 9.70537L11.4375 9.97087V14.6201C11.4375 15.194 11.2182 15.7463 10.8245 16.1638C10.4308 16.5814 9.89237 16.8327 9.31945 16.8664L9.18745 16.8701H4.68745C4.11355 16.8701 3.56132 16.6509 3.14376 16.2572C2.7262 15.8634 2.47487 15.325 2.4412 14.7521L2.43745 14.6201V9.97012C2.4377 8.64274 2.82501 7.34424 3.55195 6.23362L3.70195 6.01462L3.73945 5.96287C4.35637 5.09626 4.68774 4.05888 4.68745 2.99512V2.62012C4.68733 2.24168 4.83026 1.87719 5.08758 1.59971C5.34489 1.32222 5.69759 1.15225 6.07495 1.12387L6.18745 1.12012H7.68745ZM7.95895 4.87012H5.91595C5.73313 5.49013 5.46022 6.07993 5.10595 6.62062L4.96045 6.83362L4.92295 6.88537C4.32884 7.72072 3.98847 8.70981 3.9427 9.73387L3.94045 9.82762C4.37317 9.52185 4.89193 9.36163 5.4217 9.37012C5.83552 9.36152 6.24522 9.45378 6.6154 9.63894C6.98559 9.8241 7.30514 10.0966 7.54645 10.4329C7.74895 10.7141 8.07595 10.8776 8.4532 10.8701C8.6235 10.8736 8.7921 10.8357 8.94445 10.7595C9.0968 10.6833 9.22834 10.5712 9.3277 10.4329C9.49504 10.2001 9.70042 9.9973 9.9352 9.83287L9.93745 9.97012C9.93745 8.94262 9.64045 7.93987 9.0847 7.08112L8.9137 6.83212C8.4888 6.23562 8.16614 5.57256 7.95895 4.87012Z" fill="#36C275"/>
<path d="M15.3158 1.5L17.5658 4.5H16.0658V7.5H17.5658L15.3158 10.5L13.0658 7.5H14.5658V4.5H13.0658L15.3158 1.5Z" fill="#36C275"/>
</svg>
