<svg width="18" height="19" viewBox="0 0 18 19" fill="none" xmlns="http://www.w3.org/2000/svg">
<path d="M14.25 2.25V3.75H12.75V6C13.9927 6 15 7.00736 15 8.25V16.5C15 16.9142 14.6642 17.25 14.25 17.25H3.75C3.33579 17.25 3 16.9142 3 16.5V8.25C3 7.00736 4.00736 6 5.25 6V3.75H3.75V2.25H14.25ZM12.75 7.5H5.25C4.83579 7.5 4.5 7.83579 4.5 8.25V15.75H13.5V8.25C13.5 7.83579 13.1642 7.5 12.75 7.5ZM9.75 9V10.5H11.25V12H9.74925L9.75 13.5H8.25L8.24925 12H6.75V10.5H8.25V9H9.75ZM11.25 3.75H6.75V6H11.25V3.75Z" fill="#4693D9"/>
</svg>
