<svg width="19" height="19" viewBox="0 0 19 19" fill="none" xmlns="http://www.w3.org/2000/svg">
<path d="M10.522 1.52734C10.9004 1.52722 11.2649 1.67015 11.5424 1.92747C11.8199 2.18478 11.9898 2.53748 12.0182 2.91484L12.022 3.02734V3.40234C12.022 4.39009 12.3077 5.35534 12.8425 6.18109L12.97 6.36859L13.0075 6.42259C13.7774 7.5039 14.2152 8.78624 14.2675 10.1126L14.272 10.3781V15.0273C14.272 15.6013 14.0527 16.1535 13.659 16.571C13.2653 16.9886 12.7269 17.2399 12.154 17.2736L12.022 17.2773H7.52197C6.94806 17.2774 6.39584 17.0581 5.97828 16.6644C5.56072 16.2707 5.30939 15.7323 5.27572 15.1593L5.27197 15.0273V10.3773C5.27222 9.04997 5.65953 7.75147 6.38647 6.64084L6.53647 6.42184L6.57397 6.37009C7.19088 5.50349 7.52226 4.4661 7.52197 3.40234V3.02734C7.52185 2.64891 7.66478 2.28442 7.9221 2.00693C8.17941 1.72945 8.53211 1.55948 8.90947 1.53109L9.02197 1.52734H10.522ZM10.7935 5.27734H8.75047C8.56765 5.89736 8.29474 6.48716 7.94047 7.02784L7.79497 7.24084L7.75747 7.29259C7.16336 8.12795 6.82299 9.11703 6.77722 10.1411L6.77497 10.2348C7.20769 9.92908 7.72644 9.76886 8.25622 9.77734C8.67004 9.76874 9.07974 9.86101 9.44992 10.0462C9.82011 10.2313 10.1397 10.5038 10.381 10.8401C10.5835 11.1213 10.9105 11.2848 11.2877 11.2773C11.458 11.2809 11.6266 11.2429 11.779 11.1667C11.9313 11.0905 12.0629 10.9784 12.1622 10.8401C12.3296 10.6074 12.5349 10.4045 12.7697 10.2401L12.772 10.3773C12.772 9.34984 12.475 8.34709 11.9192 7.48834L11.7482 7.23934C11.3233 6.64284 11.0007 5.97979 10.7935 5.27734Z" fill="#4693D9"/>
</svg>
