<svg width="23" height="23" viewBox="0 0 23 23" fill="none" xmlns="http://www.w3.org/2000/svg">
<path d="M4.43864 2.4668H19.1053C19.6116 2.4668 20.022 2.87721 20.022 3.38346V19.8835C20.022 20.3897 19.6116 20.8001 19.1053 20.8001H4.43864C3.93238 20.8001 3.52197 20.3897 3.52197 19.8835V3.38346C3.52197 2.87721 3.93238 2.4668 4.43864 2.4668ZM5.35531 4.30013V18.9668H18.1886V4.30013H5.35531ZM7.18864 6.13346H16.3553V9.80013H7.18864V6.13346ZM7.18864 11.6335H9.02197V13.4668H7.18864V11.6335ZM7.18864 15.3001H9.02197V17.1335H7.18864V15.3001ZM10.8553 11.6335H12.6886V13.4668H10.8553V11.6335ZM10.8553 15.3001H12.6886V17.1335H10.8553V15.3001ZM14.522 11.6335H16.3553V17.1335H14.522V11.6335Z" fill="#4693D9"/>
</svg>
