<svg width="40" height="41" viewBox="0 0 40 41" fill="none" xmlns="http://www.w3.org/2000/svg">
<rect y="0.25" width="40" height="40" rx="20" fill="#FFF7E6"/>
<path d="M12.6667 11.0835H27.3333C27.8396 11.0835 28.25 11.4939 28.25 12.0002V28.5002C28.25 29.0064 27.8396 29.4168 27.3333 29.4168H12.6667C12.1604 29.4168 11.75 29.0064 11.75 28.5002V12.0002C11.75 11.4939 12.1604 11.0835 12.6667 11.0835ZM13.5833 12.9168V27.5835H26.4167V12.9168H13.5833ZM15.4167 14.7502H24.5833V18.4168H15.4167V14.7502ZM15.4167 20.2502H17.25V22.0835H15.4167V20.2502ZM15.4167 23.9168H17.25V25.7502H15.4167V23.9168ZM19.0833 20.2502H20.9167V22.0835H19.0833V20.2502ZM19.0833 23.9168H20.9167V25.7502H19.0833V23.9168ZM22.75 20.2502H24.5833V25.7502H22.75V20.2502Z" fill="#E6A516"/>
</svg>
