<svg width="14" height="15" viewBox="0 0 14 15" fill="none" xmlns="http://www.w3.org/2000/svg">
<path d="M4.75004 0.916992V2.25033H8.75004V0.916992H10.0834V2.25033H12.75C13.1182 2.25033 13.4167 2.54881 13.4167 2.91699V13.5837C13.4167 13.9519 13.1182 14.2503 12.75 14.2503H0.750041C0.381854 14.2503 0.083374 13.9519 0.083374 13.5837V2.91699C0.083374 2.54881 0.381854 2.25033 0.750041 2.25033H3.41671V0.916992H4.75004ZM12.0834 7.58366H1.41671V12.917H12.0834V7.58366ZM4.08337 8.91699V10.2503H2.75004V8.91699H4.08337ZM7.41671 8.91699V10.2503H6.08337V8.91699H7.41671ZM10.75 8.91699V10.2503H9.41671V8.91699H10.75ZM3.41671 3.58366H1.41671V6.25033H12.0834V3.58366H10.0834V4.91699H8.75004V3.58366H4.75004V4.91699H3.41671V3.58366Z" fill="#918F91"/>
</svg>
