<svg width="23" height="22" viewBox="0 0 23 22" fill="none" xmlns="http://www.w3.org/2000/svg">
<path d="M9.09197 3.28255L6.8339 5.61589H2.51148V19.6159H20.576V5.61589H16.2536L13.9955 3.28255H9.09197ZM8.15664 0.949219H14.9308L17.1889 3.28255H21.705C22.3286 3.28255 22.8341 3.80489 22.8341 4.44922V20.7826C22.8341 21.4269 22.3286 21.9492 21.705 21.9492H1.38245C0.758908 21.9492 0.253418 21.4269 0.253418 20.7826V4.44922C0.253418 3.80489 0.758908 3.28255 1.38245 3.28255H5.89858L8.15664 0.949219ZM11.5437 18.4492C8.11423 18.4492 5.33406 15.5764 5.33406 12.0326C5.33406 8.48872 8.11423 5.61589 11.5437 5.61589C14.9733 5.61589 17.7534 8.48872 17.7534 12.0326C17.7534 15.5764 14.9733 18.4492 11.5437 18.4492ZM11.5437 16.1159C13.7262 16.1159 15.4954 14.2877 15.4954 12.0326C15.4954 9.77738 13.7262 7.94922 11.5437 7.94922C9.36132 7.94922 7.59213 9.77738 7.59213 12.0326C7.59213 14.2877 9.36132 16.1159 11.5437 16.1159Z" fill="#90BDE9"/>
</svg>
