<svg width="19" height="19" viewBox="0 0 19 19" fill="none" xmlns="http://www.w3.org/2000/svg">
<path d="M13.522 2.02734V3.52734H15.7769C16.1884 3.52734 16.522 3.86106 16.522 4.27239V16.2823C16.522 16.6937 16.1883 17.0273 15.7769 17.0273H3.76702C3.35554 17.0273 3.02197 16.6937 3.02197 16.2823V4.27239C3.02197 3.86091 3.35569 3.52734 3.76702 3.52734H6.02197V2.02734H13.522ZM6.02197 5.02734H4.52197V15.5273H15.022V5.02734H13.522V6.52734H6.02197V5.02734ZM7.52197 12.5273V14.0273H6.02197V12.5273H7.52197ZM7.52197 10.2773V11.7773H6.02197V10.2773H7.52197ZM7.52197 8.02734V9.52734H6.02197V8.02734H7.52197ZM12.022 3.52734H7.52197V5.02734H12.022V3.52734Z" fill="#1A3A60"/>
</svg>
