<svg width="19" height="19" viewBox="0 0 19 19" fill="none" xmlns="http://www.w3.org/2000/svg">
<path d="M6.02182 5.02734V2.77734C6.02182 2.36313 6.35761 2.02734 6.77182 2.02734H15.7718C16.186 2.02734 16.5218 2.36313 16.5218 2.77734V13.2773C16.5218 13.6916 16.186 14.0273 15.7718 14.0273H13.5218V16.2767C13.5218 16.6913 13.1844 17.0273 12.7667 17.0273H3.77697C3.35992 17.0273 3.02197 16.6939 3.02197 16.2767L3.02392 5.778C3.024 5.36343 3.36145 5.02734 3.77904 5.02734H6.02182ZM4.52379 6.52734L4.52211 15.5273H12.0218V6.52734H4.52379ZM7.52182 5.02734H13.5218V12.5273H15.0218V3.52734H7.52182V5.02734Z" fill="#1F64AA"/>
</svg>
