<svg width="14" height="15" viewBox="0 0 14 15" fill="none" xmlns="http://www.w3.org/2000/svg">
<path d="M4.75004 0.916504V2.24984H8.75004V0.916504H10.0834V2.24984H12.75C13.1182 2.24984 13.4167 2.54832 13.4167 2.9165V13.5832C13.4167 13.9514 13.1182 14.2498 12.75 14.2498H0.750041C0.381854 14.2498 0.083374 13.9514 0.083374 13.5832V2.9165C0.083374 2.54832 0.381854 2.24984 0.750041 2.24984H3.41671V0.916504H4.75004ZM12.0834 7.58317H1.41671V12.9165H12.0834V7.58317ZM4.08337 8.9165V10.2498H2.75004V8.9165H4.08337ZM7.41671 8.9165V10.2498H6.08337V8.9165H7.41671ZM10.75 8.9165V10.2498H9.41671V8.9165H10.75ZM3.41671 3.58317H1.41671V6.24984H12.0834V3.58317H10.0834V4.9165H8.75004V3.58317H4.75004V4.9165H3.41671V3.58317Z" fill="#918F91"/>
</svg>
