<svg width="18" height="19" viewBox="0 0 18 19" fill="none" xmlns="http://www.w3.org/2000/svg">
<path d="M3.225 9.6C3.5375 8.5125 4.172 7.3595 5.1285 6.141C6.085 4.9225 7.3755 3.6255 9 2.25C10.625 3.625 11.9158 4.922 12.8723 6.141C13.8288 7.36 14.463 8.513 14.775 9.6H3.225ZM14.8875 12.3375C14.775 12.95 14.578 13.5283 14.2965 14.0723C14.015 14.6163 13.6558 15.1068 13.2188 15.5438C12.7818 15.9808 12.291 16.337 11.7465 16.6125C11.202 16.888 10.6303 17.0755 10.0313 17.175L14.8875 12.3375ZM11.8313 11.1H13.9688L7.89375 17.175C7.60625 17.1125 7.32825 17.0408 7.05975 16.9598C6.79125 16.8788 6.53175 16.7692 6.28125 16.6312L11.8313 11.1ZM7.5375 11.1H9.675L5.00625 15.7687C4.81875 15.5938 4.64075 15.4125 4.47225 15.225C4.30375 15.0375 4.1505 14.8375 4.0125 14.625L7.5375 11.1ZM3.225 11.1H5.3625L3.3 13.1625C3.2 12.825 3.1405 12.4812 3.1215 12.1313C3.1025 11.7812 3.137 11.4375 3.225 11.1Z" fill="#4693D9"/>
</svg>
