<svg width="29" height="29" viewBox="0 0 29 29" fill="none" xmlns="http://www.w3.org/2000/svg">
<path d="M14.4999 2.83325C20.9432 2.83325 26.1666 8.05659 26.1666 14.4999C26.1666 20.9432 20.9432 26.1666 14.4999 26.1666C8.05659 26.1666 2.83325 20.9432 2.83325 14.4999C2.83325 8.05659 8.05659 2.83325 14.4999 2.83325ZM19.1716 15.5239C18.7686 14.9121 18.4779 14.4703 17.3725 14.6455C15.2836 14.9771 15.052 15.3427 14.9522 15.9437L14.9241 16.1266L14.8958 16.3196C14.7818 17.1165 14.7861 17.418 15.152 17.8025C16.628 19.3512 17.5123 20.4674 17.7801 21.1203C17.9109 21.4397 18.2471 22.4042 18.0158 23.3581C19.4433 22.791 20.7015 21.8887 21.6928 20.7485C21.8213 20.3124 21.9142 19.7693 21.9142 19.1104V18.9883C21.9142 17.9121 21.9142 17.4213 21.1535 16.9866C20.8326 16.8042 20.5931 16.6944 20.4012 16.6074C19.9728 16.4126 19.6891 16.2846 19.3064 15.7248C19.2607 15.6582 19.2162 15.5917 19.1716 15.5239ZM14.4999 4.97214C11.7963 4.97214 9.35564 6.09826 7.62149 7.90704C7.82794 8.05042 8.00785 8.25187 8.13142 8.52957C8.36942 9.06359 8.36942 9.61299 8.36942 10.0988C8.36895 10.4822 8.36841 10.845 8.49149 11.1084C8.66009 11.4682 9.38572 11.6209 10.0263 11.7552C10.2552 11.8034 10.4912 11.8526 10.7059 11.912C11.2963 12.076 11.753 12.6058 12.1192 13.0313C12.2711 13.2085 12.4955 13.4689 12.6079 13.5336C12.6666 13.4915 12.8549 13.2875 12.9481 12.9523C13.0191 12.6971 12.9989 12.4696 12.8945 12.3466C12.2422 11.5768 12.2777 10.0937 12.4793 9.54736C12.7968 8.68532 13.7888 8.74893 14.5139 8.79605C14.7844 8.81346 15.0396 8.83019 15.2299 8.80631C15.9562 8.71519 16.1795 7.6112 16.3374 7.39492C16.6782 6.92803 17.7207 6.22487 18.3684 5.79022C17.1862 5.26438 15.8772 4.97214 14.4999 4.97214Z" fill="#2E7FC9"/>
</svg>
