<svg width="18" height="19" viewBox="0 0 18 19" fill="none" xmlns="http://www.w3.org/2000/svg">
<g clip-path="url(#clip0_93_1375)">
<path d="M6.27047 1.06217C4.47199 1.68608 2.92098 2.87028 1.84527 4.44083C0.769554 6.01138 0.225832 7.88549 0.293966 9.7879C0.3621 11.6903 1.0385 13.5207 2.22381 15.0103C3.40912 16.4999 5.04087 17.5701 6.87937 18.0637C8.36989 18.4483 9.93151 18.4652 11.43 18.1129C12.7875 17.808 14.0425 17.1558 15.0722 16.2201C16.1439 15.2166 16.9217 13.9399 17.3222 12.5273C17.7575 10.9912 17.8349 9.37582 17.5486 7.80514H9.17859V11.2772H14.0259C13.9291 11.8309 13.7215 12.3595 13.4156 12.8311C13.1097 13.3028 12.7117 13.7079 12.2456 14.0222C11.6537 14.4137 10.9865 14.6772 10.2867 14.7956C9.58492 14.9261 8.86508 14.9261 8.16328 14.7956C7.45198 14.6485 6.77911 14.355 6.1875 13.9336C5.23708 13.2608 4.52345 12.305 4.14844 11.2026C3.76708 10.0796 3.76708 8.86208 4.14844 7.73904C4.41538 6.95185 4.85667 6.23511 5.43937 5.64232C6.10621 4.9515 6.95044 4.45769 7.87944 4.21509C8.80844 3.97248 9.78632 3.99044 10.7058 4.26701C11.4241 4.4875 12.0809 4.87274 12.6239 5.39201C13.1705 4.84826 13.7161 4.3031 14.2608 3.75654C14.542 3.46264 14.8486 3.18279 15.1256 2.88185C14.2967 2.11049 13.3238 1.51028 12.2625 1.1156C10.3299 0.413872 8.21528 0.395013 6.27047 1.06217Z" fill="white"/>
<path d="M6.27047 1.06236C8.21512 0.394755 10.3297 0.413117 12.2625 1.11439C13.324 1.51175 14.2965 2.11485 15.1242 2.88908C14.843 3.19002 14.5462 3.47127 14.2594 3.76377C13.7137 4.30846 13.1686 4.85127 12.6239 5.39221C12.0809 4.87293 11.424 4.48769 10.7058 4.26721C9.78662 3.98967 8.80877 3.97067 7.87952 4.21228C6.95028 4.4539 6.10553 4.94679 5.43797 5.63689C4.85526 6.22968 4.41397 6.94642 4.14703 7.73361L1.23187 5.47658C2.27532 3.40737 4.08199 1.82458 6.27047 1.06236Z" fill="#E33629"/>
<path d="M0.458436 7.7125C0.615122 6.93596 0.875254 6.18394 1.23187 5.47656L4.14703 7.73922C3.76568 8.86226 3.76568 10.0798 4.14703 11.2028C3.17578 11.9528 2.20406 12.7066 1.23187 13.4641C0.339117 11.687 0.0668415 9.66227 0.458436 7.7125Z" fill="#F8BD00"/>
<path d="M9.1786 7.80371H17.5486C17.8349 9.3744 17.7575 10.9898 17.3222 12.5259C16.9217 13.9384 16.1439 15.2151 15.0722 16.2187C14.1314 15.4846 13.1864 14.7562 12.2456 14.0221C12.712 13.7075 13.1101 13.302 13.4161 12.8298C13.722 12.3577 13.9294 11.8286 14.0259 11.2743H9.1786C9.17719 10.1184 9.1786 8.96105 9.1786 7.80371Z" fill="#587DBD"/>
<path d="M1.23047 13.4639C2.20266 12.7139 3.17437 11.9601 4.14562 11.2026C4.52139 12.3054 5.23604 13.2612 6.1875 13.9336C6.78095 14.353 7.45528 14.6442 8.1675 14.7886C8.8693 14.9191 9.58914 14.9191 10.2909 14.7886C10.9907 14.6701 11.6579 14.4067 12.2498 14.0151C13.1906 14.7492 14.1356 15.4776 15.0764 16.2117C14.0469 17.1479 12.7918 17.8006 11.4342 18.1059C9.93573 18.4582 8.37411 18.4413 6.88359 18.0567C5.70474 17.7419 4.60361 17.1871 3.64922 16.4269C2.63905 15.6249 1.814 14.6142 1.23047 13.4639Z" fill="#319F43"/>
</g>
<defs>
<clipPath id="clip0_93_1375">
<rect width="18" height="18" fill="white" transform="translate(0 0.470215)"/>
</clipPath>
</defs>
</svg>
