<svg width="21" height="21" viewBox="0 0 21 21" fill="none" xmlns="http://www.w3.org/2000/svg">
<path d="M1.76001 18.5835C1.76001 14.9016 4.74478 11.9168 8.42668 11.9168C12.1086 11.9168 15.0933 14.9016 15.0933 18.5835H13.4267C13.4267 15.8221 11.1881 13.5835 8.42668 13.5835C5.66525 13.5835 3.42668 15.8221 3.42668 18.5835H1.76001ZM8.42668 11.0835C5.66418 11.0835 3.42668 8.846 3.42668 6.0835C3.42668 3.321 5.66418 1.0835 8.42668 1.0835C11.1892 1.0835 13.4267 3.321 13.4267 6.0835C13.4267 8.846 11.1892 11.0835 8.42668 11.0835ZM8.42668 9.41683C10.2683 9.41683 11.76 7.92516 11.76 6.0835C11.76 4.24183 10.2683 2.75016 8.42668 2.75016C6.58501 2.75016 5.09334 4.24183 5.09334 6.0835C5.09334 7.92516 6.58501 9.41683 8.42668 9.41683ZM15.3298 12.5025C17.647 13.5469 19.26 15.8768 19.26 18.5835H17.5933C17.5933 16.5535 16.3836 14.8061 14.6457 14.0227L15.3298 12.5025ZM14.7568 3.0945C16.422 3.78102 17.5933 5.41984 17.5933 7.3335C17.5933 9.72533 15.7635 11.6878 13.4267 11.8982V10.2207C14.8406 10.0187 15.9267 8.8035 15.9267 7.3335C15.9267 6.18295 15.2613 5.18852 14.2942 4.71379L14.7568 3.0945Z" fill="#4693D9"/>
</svg>
