<svg width="45" height="45" viewBox="0 0 45 45" fill="none" xmlns="http://www.w3.org/2000/svg">
<rect x="0.293457" y="0.503906" width="44" height="44" rx="6" fill="#E4EDFA"/>
<path d="M22.2936 13.3379C27.3562 13.3379 31.4603 17.4419 31.4603 22.5046C31.4603 27.5671 27.3562 31.6712 22.2936 31.6712C17.231 31.6712 13.127 27.5671 13.127 22.5046H14.9603C14.9603 26.5547 18.2435 29.8379 22.2936 29.8379C26.3437 29.8379 29.627 26.5547 29.627 22.5046C29.627 18.4545 26.3437 15.1712 22.2936 15.1712C19.773 15.1712 17.5494 16.443 16.2294 18.3798L18.627 18.3796V20.2129H13.127V14.7129H14.9603L14.9602 17.0038C16.6326 14.7777 19.295 13.3379 22.2936 13.3379ZM23.2103 17.9212L23.2101 22.1241L26.1827 25.0973L24.8863 26.3936L21.3768 22.8831L21.377 17.9212H23.2103Z" fill="#4693D9"/>
</svg>
