<svg width="40" height="41" viewBox="0 0 40 41" fill="none" xmlns="http://www.w3.org/2000/svg">
<rect y="0.25" width="40" height="40" rx="20" fill="#F2F7FD"/>
<path d="M20 11.9165C24.6023 11.9165 28.3333 15.6475 28.3333 20.2498C28.3333 24.8522 24.6023 28.5832 20 28.5832C15.3976 28.5832 11.6667 24.8522 11.6667 20.2498H13.3333C13.3333 23.9318 16.3181 26.9165 20 26.9165C23.6819 26.9165 26.6667 23.9318 26.6667 20.2498C26.6667 16.5679 23.6819 13.5832 20 13.5832C17.7085 13.5832 15.687 14.7393 14.4871 16.5L16.6667 16.4998V18.1665H11.6667V13.1665H13.3333L13.3332 15.2492C14.8536 13.2255 17.2739 11.9165 20 11.9165ZM20.8333 16.0832L20.8332 19.904L23.5355 22.6068L22.357 23.7853L19.1665 20.594L19.1667 16.0832H20.8333Z" fill="#2E7FC9"/>
</svg>
