<svg width="19" height="19" viewBox="0 0 19 19" fill="none" xmlns="http://www.w3.org/2000/svg">
<path d="M9.27198 0.466797C14.3345 0.466797 18.4387 4.57085 18.4387 9.63346C18.4387 14.696 14.3345 18.8001 9.27198 18.8001C4.20937 18.8001 0.105316 14.696 0.105316 9.63346H1.93865C1.93865 13.6836 5.22189 16.9668 9.27198 16.9668C13.3221 16.9668 16.6053 13.6836 16.6053 9.63346C16.6053 5.58337 13.3221 2.30013 9.27198 2.30013C6.75135 2.30013 4.52775 3.57186 3.20778 5.50868L5.60532 5.50846V7.3418H0.105316V1.8418H1.93865L1.93855 4.13271C3.61096 1.90665 6.27332 0.466797 9.27198 0.466797ZM10.1887 5.05013L10.1885 9.25305L13.161 12.2262L11.8647 13.5225L8.35513 10.012L8.35532 5.05013H10.1887Z" fill="#878787"/>
</svg>
