<svg width="24" height="25" viewBox="0 0 24 25" fill="none" xmlns="http://www.w3.org/2000/svg">
<path d="M12 22.0449C6.47715 22.0449 2 17.5677 2 12.0449C2 6.52207 6.47715 2.04492 12 2.04492C17.5228 2.04492 22 6.52207 22 12.0449C22 17.5677 17.5228 22.0449 12 22.0449ZM12 20.0449C16.4183 20.0449 20 16.4632 20 12.0449C20 7.62664 16.4183 4.04492 12 4.04492C7.58172 4.04492 4 7.62664 4 12.0449C4 16.4632 7.58172 20.0449 12 20.0449ZM11 7.04492H13V9.04492H11V7.04492ZM11 11.0449H13V17.0449H11V11.0449Z" fill="#C9C9C9"/>
</svg>
