<svg width="21" height="21" viewBox="0 0 21 21" fill="none" xmlns="http://www.w3.org/2000/svg">
<path d="M5.28925 5.62758C4.13585 6.82607 3.42668 8.45514 3.42668 10.2498C3.42668 13.9318 6.41144 16.9165 10.0933 16.9165C10.994 16.9165 11.853 16.7379 12.6368 16.4142C12.7326 15.7888 12.5223 15.1887 12.4363 14.9787C12.245 14.5123 11.6134 13.715 10.5591 12.6088C10.2777 12.313 10.2958 12.0861 10.3963 11.4118L10.4079 11.3356C10.4763 10.8737 10.5909 10.6006 12.1452 10.3538C12.9348 10.2287 13.1424 10.5443 13.4303 10.9813C13.4621 11.0297 13.4939 11.0772 13.5265 11.1248C13.7999 11.5246 14.0025 11.616 14.3085 11.7552C14.4456 11.8173 14.6167 11.8958 14.8459 12.026C15.3893 12.3365 15.3893 12.6871 15.3893 13.4558V13.543C15.3893 13.8693 15.3573 14.1558 15.3072 14.4048C16.2165 13.2653 16.76 11.821 16.76 10.2498C16.76 7.50058 15.0958 5.14 12.7199 4.12052C12.2589 4.43161 11.6265 4.87255 11.4058 5.17484C11.293 5.32932 11.1335 6.11789 10.6148 6.18297C10.4788 6.20003 10.2965 6.18808 10.1033 6.17565C9.58543 6.14199 8.87684 6.09655 8.65001 6.7123C8.50601 7.1025 8.48068 8.16188 8.94659 8.71175C9.02118 8.79959 9.03559 8.96209 8.98493 9.14442C8.91834 9.38384 8.78384 9.5295 8.74193 9.55959C8.66159 9.51342 8.50134 9.32742 8.39283 9.20084C8.13129 8.89692 7.80505 8.51845 7.38332 8.4013C7.22997 8.35886 7.06139 8.32373 6.89791 8.2893C6.44034 8.1934 5.92203 8.08429 5.80161 7.82735C5.71369 7.63917 5.71408 7.38001 5.71442 7.1062C5.71442 6.75917 5.71442 6.36675 5.54442 5.9853C5.47873 5.83768 5.39075 5.72022 5.28925 5.62758ZM10.0933 18.5832C5.49097 18.5832 1.76001 14.8522 1.76001 10.2498C1.76001 5.64746 5.49097 1.9165 10.0933 1.9165C14.6957 1.9165 18.4267 5.64746 18.4267 10.2498C18.4267 14.8522 14.6957 18.5832 10.0933 18.5832Z" fill="#4693D9"/>
</svg>
