<svg width="20" height="21" viewBox="0 0 20 21" fill="none" xmlns="http://www.w3.org/2000/svg">
<path d="M15.8333 9.51587H4.16667C3.24619 9.51587 2.5 10.2621 2.5 11.1825V17.0159C2.5 17.9363 3.24619 18.6825 4.16667 18.6825H15.8333C16.7538 18.6825 17.5 17.9363 17.5 17.0159V11.1825C17.5 10.2621 16.7538 9.51587 15.8333 9.51587Z" stroke="#12253F" stroke-width="1.8" stroke-linecap="round" stroke-linejoin="round"/>
<path d="M5.83331 9.51587V6.18254C5.83331 5.07747 6.2723 4.01766 7.0537 3.23626C7.8351 2.45486 8.89491 2.01587 9.99998 2.01587C11.105 2.01587 12.1649 2.45486 12.9463 3.23626C13.7277 4.01766 14.1666 5.07747 14.1666 6.18254V9.51587" stroke="#12253F" stroke-width="1.8" stroke-linecap="round" stroke-linejoin="round"/>
</svg>
