<svg width="81" height="81" viewBox="0 0 81 81" fill="none" xmlns="http://www.w3.org/2000/svg">
<rect x="0.499756" y="0.25" width="80" height="80" rx="40" fill="#F2F7FD"/>
<path d="M30.3699 33.5832V31.9165C30.3699 26.3937 34.9052 21.9165 40.4997 21.9165C46.0943 21.9165 50.6296 26.3937 50.6296 31.9165V33.5832H54.0062C54.9387 33.5832 55.6945 34.3294 55.6945 35.2498V55.2498C55.6945 56.1703 54.9387 56.9165 54.0062 56.9165H26.9932C26.0608 56.9165 25.3049 56.1703 25.3049 55.2498V35.2498C25.3049 34.3294 26.0608 33.5832 26.9932 33.5832H30.3699ZM52.3179 36.9165H28.6816V53.5832H52.3179V36.9165ZM38.8114 46.4705C37.8022 45.8942 37.1231 44.817 37.1231 43.5832C37.1231 41.7422 38.6348 40.2498 40.4997 40.2498C42.3646 40.2498 43.8764 41.7422 43.8764 43.5832C43.8764 44.817 43.1973 45.8942 42.188 46.4705V50.2498H38.8114V46.4705ZM33.7465 33.5832H47.253V31.9165C47.253 28.2346 44.2294 25.2498 40.4997 25.2498C36.77 25.2498 33.7465 28.2346 33.7465 31.9165V33.5832Z" fill="#4693D9"/>
</svg>
