<svg width="21" height="21" viewBox="0 0 21 21" fill="none" xmlns="http://www.w3.org/2000/svg">
<path d="M5.09326 6.91683V6.0835C5.09326 3.32207 7.33184 1.0835 10.0933 1.0835C12.8547 1.0835 15.0933 3.32207 15.0933 6.0835V6.91683H16.7599C17.2202 6.91683 17.5933 7.28993 17.5933 7.75016V17.7502C17.5933 18.2104 17.2202 18.5835 16.7599 18.5835H3.4266C2.96636 18.5835 2.59326 18.2104 2.59326 17.7502V7.75016C2.59326 7.28993 2.96636 6.91683 3.4266 6.91683H5.09326ZM15.9266 8.5835H4.25993V16.9168H15.9266V8.5835ZM9.25993 13.3605C8.76176 13.0723 8.42659 12.5337 8.42659 11.9168C8.42659 10.9963 9.17276 10.2502 10.0933 10.2502C11.0138 10.2502 11.7599 10.9963 11.7599 11.9168C11.7599 12.5337 11.4248 13.0723 10.9266 13.3605V15.2502H9.25993V13.3605ZM6.75993 6.91683H13.4266V6.0835C13.4266 4.24255 11.9342 2.75016 10.0933 2.75016C8.25231 2.75016 6.75993 4.24255 6.75993 6.0835V6.91683Z" fill="#4693D9"/>
</svg>
