<svg width="21" height="21" viewBox="0 0 21 21" fill="none" xmlns="http://www.w3.org/2000/svg">
<path d="M5.72082 3.42281L6.67667 4.78831C4.95737 5.99405 3.83341 7.99093 3.83341 10.2503C3.83341 13.9322 6.81818 16.917 10.5001 16.917C14.182 16.917 17.1667 13.9322 17.1667 10.2503C17.1667 7.99093 16.0427 5.99405 14.3235 4.78831L15.2793 3.42281C17.4285 4.92998 18.8334 7.42608 18.8334 10.2503C18.8334 14.8527 15.1024 18.5837 10.5001 18.5837C5.89771 18.5837 2.16675 14.8527 2.16675 10.2503C2.16675 7.42608 3.5717 4.92998 5.72082 3.42281ZM9.66675 10.2503V1.91699H11.3334V10.2503H9.66675Z" fill="#12253F"/>
</svg>
