<svg width="25" height="24" viewBox="0 0 25 24" fill="none" xmlns="http://www.w3.org/2000/svg">
<path d="M6.35864 3.80698L7.50566 5.44558C5.4425 6.89247 4.09375 9.28873 4.09375 12C4.09375 16.4183 7.67547 20 12.0937 20C16.512 20 20.0937 16.4183 20.0937 12C20.0937 9.28873 18.7449 6.89247 16.6818 5.44558L17.8288 3.80698C20.4078 5.61559 22.0937 8.61091 22.0937 12C22.0937 17.5228 17.6165 22 12.0937 22C6.5709 22 2.09375 17.5228 2.09375 12C2.09375 8.61091 3.77969 5.61559 6.35864 3.80698ZM11.0937 12V2H13.0937V12H11.0937Z" fill="#E53935"/>
</svg>
