<svg width="18" height="19" viewBox="0 0 18 19" fill="none" xmlns="http://www.w3.org/2000/svg">
<path d="M6.75 11.6643V12.1016C6.75 12.9967 7.10558 13.8551 7.73851 14.488C8.37145 15.121 9.22989 15.4766 10.125 15.4766C11.0201 15.4766 11.8785 15.121 12.5115 14.488C13.1444 13.8551 13.5 12.9967 13.5 12.1016V10.8491C12.9994 10.6721 12.5774 10.3239 12.3087 9.86596C12.04 9.408 11.9419 8.86979 12.0316 8.34647C12.1214 7.82315 12.3933 7.3484 12.7992 7.00616C13.2052 6.66391 13.719 6.4762 14.25 6.4762C14.781 6.4762 15.2948 6.66391 15.7008 7.00616C16.1067 7.3484 16.3786 7.82315 16.4684 8.34647C16.5581 8.86979 16.46 9.408 16.1913 9.86596C15.9226 10.3239 15.5006 10.6721 15 10.8491V12.1016C15 13.3945 14.4864 14.6345 13.5721 15.5487C12.6579 16.4629 11.4179 16.9766 10.125 16.9766C8.83207 16.9766 7.59209 16.4629 6.67785 15.5487C5.76361 14.6345 5.25 13.3945 5.25 12.1016V11.6643C4.20131 11.4871 3.24931 10.9441 2.56285 10.1317C1.87638 9.31937 1.49984 8.29012 1.5 7.22656V3.47656C1.5 3.07874 1.65804 2.69721 1.93934 2.4159C2.22064 2.1346 2.60218 1.97656 3 1.97656H3.75C3.94891 1.97656 4.13968 2.05558 4.28033 2.19623C4.42098 2.33688 4.5 2.52765 4.5 2.72656C4.5 2.92547 4.42098 3.11624 4.28033 3.25689C4.13968 3.39754 3.94891 3.47656 3.75 3.47656H3V7.22656C3 8.02221 3.31607 8.78527 3.87868 9.34788C4.44129 9.91049 5.20435 10.2266 6 10.2266C6.79565 10.2266 7.55871 9.91049 8.12132 9.34788C8.68393 8.78527 9 8.02221 9 7.22656V3.47656H8.25C8.05109 3.47656 7.86032 3.39754 7.71967 3.25689C7.57902 3.11624 7.5 2.92547 7.5 2.72656C7.5 2.52765 7.57902 2.33688 7.71967 2.19623C7.86032 2.05558 8.05109 1.97656 8.25 1.97656H9C9.39782 1.97656 9.77935 2.1346 10.0607 2.4159C10.342 2.69721 10.5 3.07874 10.5 3.47656V7.22656C10.5002 8.29012 10.1236 9.31937 9.43715 10.1317C8.75069 10.9441 7.79868 11.4871 6.75 11.6643ZM14.25 9.47656C14.4489 9.47656 14.6397 9.39754 14.7803 9.25689C14.921 9.11624 15 8.92547 15 8.72656C15 8.52765 14.921 8.33688 14.7803 8.19623C14.6397 8.05558 14.4489 7.97656 14.25 7.97656C14.0511 7.97656 13.8603 8.05558 13.7197 8.19623C13.579 8.33688 13.5 8.52765 13.5 8.72656C13.5 8.92547 13.579 9.11624 13.7197 9.25689C13.8603 9.39754 14.0511 9.47656 14.25 9.47656Z" fill="#4693D9"/>
</svg>
