<svg width="20" height="20" viewBox="0 0 20 20" fill="none" xmlns="http://www.w3.org/2000/svg">
<path d="M0.605316 19.3838C0.605316 15.3337 3.88856 12.0505 7.93865 12.0505C11.9888 12.0505 15.272 15.3337 15.272 19.3838H13.4387C13.4387 16.3462 10.9762 13.8838 7.93865 13.8838C4.90108 13.8838 2.43865 16.3462 2.43865 19.3838H0.605316ZM7.93865 11.1338C4.8999 11.1338 2.43865 8.67254 2.43865 5.63379C2.43865 2.59504 4.8999 0.133789 7.93865 0.133789C10.9774 0.133789 13.4387 2.59504 13.4387 5.63379C13.4387 8.67254 10.9774 11.1338 7.93865 11.1338ZM7.93865 9.30046C9.96448 9.30046 11.6053 7.65962 11.6053 5.63379C11.6053 3.60796 9.96448 1.96712 7.93865 1.96712C5.91282 1.96712 4.27198 3.60796 4.27198 5.63379C4.27198 7.65962 5.91282 9.30046 7.93865 9.30046ZM15.532 12.6947C18.081 13.8435 19.8553 16.4065 19.8553 19.3838H18.022C18.022 17.1508 16.6913 15.2286 14.7795 14.367L15.532 12.6947ZM14.9018 2.3459C16.7335 3.10107 18.022 4.90376 18.022 7.00879C18.022 9.63981 16.0092 11.7986 13.4387 12.0299V10.1847C14.994 9.96247 16.1887 8.62579 16.1887 7.00879C16.1887 5.74319 15.4568 4.64932 14.3929 4.12711L14.9018 2.3459Z" fill="#878787"/>
</svg>
