<svg width="171" height="216" viewBox="0 0 171 216" fill="none" xmlns="http://www.w3.org/2000/svg">
<g clip-path="url(#clip0_93_548)">
<path d="M79.9822 155.118C79.5501 158.781 79.3012 162.094 80.2029 165.724C83.3216 178.325 101.817 183.931 113.254 183.203C114.02 183.463 113.855 185.566 113.705 186.27H106.514C96.1954 185.514 85.731 185.013 76.8025 179.252C63.8441 170.895 61.4065 158.535 69.9781 145.566C72.9699 141.038 76.8354 137.47 78.1974 131.973C79.8178 125.422 78.545 117.713 74.9473 112.027C69.3863 103.245 58.8749 106.072 54.6807 95.9191C53.9715 94.1987 53.9574 92.6484 53.5535 90.8665C48.7111 88.2102 42.9951 86.4 39.2001 82.2123C38.9465 81.9334 37.4013 80.2508 37.3778 80.1138C37.312 79.7215 39.2894 78.1381 39.7027 78.1759C42.563 79.7971 45.3341 81.6735 48.4387 82.8126C50.0919 83.4223 54.2815 84.7599 55.869 84.3723C58.222 81.078 62.3881 79.6175 66.3428 80.057C66.9064 80.1185 69.5601 81.0402 69.7432 80.8605C68.3201 75.4393 64.6942 70.6183 59.8049 67.8675C53.901 64.5447 51.6231 66.6008 45.8132 67.6122C31.2156 70.1503 17.595 63.8121 7.94783 53.0216C0.846312 45.0811 -5.9734 30.4574 8.7134 26.3548C21.7939 22.6965 32.7937 28.9638 41.3606 38.3742C43.864 41.1203 45.987 44.41 48.434 47.1371C53.5957 52.8893 58.7904 50.5875 61.228 43.9373C62.7497 39.7827 63.6139 36.6396 65.7416 32.5985C74.0455 16.8026 87.4876 4.26799 105.551 1.30921C109.835 0.604969 115.297 0.089783 119.632 0.00943289C120.478 -0.00474654 122.131 -0.0472848 122.878 0.269389C123.178 0.397004 124.625 2.81696 123.958 3.11945C112.968 7.00462 102.625 13.1112 94.2228 21.2549C79.7849 35.2548 73.6134 54.0331 85.0218 72.3907C87.8211 76.8998 92.2361 79.9909 94.777 84.4385C102.287 97.6064 100.305 114.286 94.3684 127.615C92.222 132.431 85.576 143.354 85.515 148.01C85.4586 152.098 89.6716 158.375 92.5883 161.102C93.4619 161.92 97.4448 164.571 97.7266 165.011C98.0084 165.45 96.7966 166.982 96.4585 167.043C95.4674 167.227 85.8766 160.587 84.5944 159.452C83.3122 158.318 81.9548 156.465 80.6069 155.425C80.4002 155.265 80.3485 155.024 79.9916 155.118H79.9822ZM63.5435 85.2562C61.6507 85.4358 59.5747 87.09 58.9782 88.9145C57.2451 94.2176 63.9991 98.3154 67.9913 94.2743C71.5186 90.7058 68.2966 84.8072 63.5435 85.2562Z" fill="#070505"/>
<path d="M123.389 51.0223C132.477 50.1621 142.627 51.5422 151.823 50.9514C155.726 51.1972 159.136 52.9554 161.428 56.1363C165.585 61.9074 163.598 67.1443 162.987 73.5487C162.001 83.8193 162.203 93.8158 163.194 104.068C163.48 107.031 164.279 109.919 164.007 112.934C163.499 118.597 158.586 124.141 152.847 124.599C143.186 125.37 132.505 124.027 122.736 124.566C118.316 123.909 114.705 120.979 112.939 116.895C110.83 112.017 112.281 108.369 112.769 103.448C113.732 93.7213 113.887 83.9138 112.976 74.1631C112.619 70.3583 111.346 65.7169 111.976 62.0161C112.962 56.2072 117.485 51.58 123.389 51.0223ZM123.596 54.7373C118.481 55.2903 115.146 60.0688 115.442 65.0883C115.658 68.704 116.579 72.7215 116.87 76.4366C117.457 83.8666 117.457 91.8969 116.87 99.3269C116.24 107.267 112.248 118.048 122.938 120.861C132.458 120.279 143.04 121.711 152.438 120.889C154.613 120.7 156.802 119.462 158.154 117.77C161.902 113.081 159.794 107.584 159.3 102.215C158.347 91.8212 158.539 81.6688 159.531 71.3036C159.906 67.3712 161.235 63.8405 159.446 59.9931C158.131 57.1667 155.341 54.9594 152.204 54.6995C143.054 55.3139 132.595 53.7637 123.596 54.7326V54.7373Z" fill="#4693D9"/>
<path d="M151.79 139.573C158.638 148.898 158.619 156.616 154.843 167.44C150.344 180.334 134.769 189.399 121.905 191.219C121.336 191.299 117.405 191.271 117.076 191.11C116.316 190.732 116.433 188.667 116.485 187.929C121.844 186.596 127.015 185.046 130.918 180.901C136.516 174.946 138.611 167.629 137.113 159.608C136.056 153.941 133.914 150.354 131.444 145.259C128.973 140.164 127.447 134.884 132.674 130.9C139.475 125.715 147.958 134.35 151.795 139.573H151.79ZM141.673 132.015C141.777 131.557 140.485 131.122 140.255 131.07C139.691 130.947 138.245 130.871 137.719 130.985C137.597 131.013 136.225 132.497 135.943 132.743C135.403 133.216 134.919 133.249 134.299 133.977C132.261 136.368 132.308 139.128 133.337 141.945C133.797 143.212 134.84 145.533 136.141 146.034C136.155 146.1 136.122 146.18 136.141 146.242C136.817 148.468 138.259 149.399 139.508 151.209C139.654 151.417 139.626 151.829 139.823 152.131C140.072 152.504 140.687 152.968 141.058 153.256C142.397 155.737 143.712 157.93 144.327 160.795C145.027 164.051 145.417 167.52 145.694 170.928C145.713 171.165 145.567 171.377 145.567 171.614C146.018 172.072 147.85 169.241 148.023 169.038C149.517 167.331 151.189 165.729 152.65 163.994C154.791 161.447 156.243 158.11 156.435 154.612C156.511 153.275 156.013 153.228 156.013 153.142C155.98 151.762 156.243 151.564 155.825 150.042C154.989 147.008 154.265 144.843 152.41 141.936C150.17 138.434 145.595 133.476 141.673 132.015Z" fill="#070505"/>
<path d="M137.122 6.24842C139.518 6.00737 142.026 8.27135 142.289 10.6393C142.754 14.7844 141.415 17.9654 144.045 21.8647C146.131 24.9558 149.789 24.9984 151.311 27.9571C152.236 29.7532 153.007 32.9719 150.189 33.2319C142.063 33.9834 132.801 32.6458 124.554 33.2271C121.712 32.5891 122.91 28.9497 124.164 27.2576C125.897 24.9275 128.607 24.8235 130.481 22.4791C133.698 18.4569 132.167 15.2949 132.651 10.8426C132.89 8.62111 134.849 6.47529 137.118 6.24842H137.122Z" fill="#4693D9"/>
<path d="M119.406 38.4547C120.172 37.6275 121.792 36.8524 122.919 36.7295L153.406 36.7862C155.999 37.2541 157.807 39.1116 158.07 41.7868C158.215 43.2757 158.61 47.4302 156.539 47.4633L119.237 47.4539C118.805 47.3735 118.194 46.7638 118.11 46.3195C117.95 45.4877 118.002 42.302 118.096 41.3614C118.19 40.4209 118.753 39.1636 119.411 38.4547H119.406Z" fill="#4693D9"/>
<path d="M122.609 215.442C122.407 216.071 119.194 216.151 118.946 215.414L119.11 196.863C119.594 196.177 122.863 196.253 123.741 196.357C125.488 196.57 125.685 197.832 126.244 199.197C127.682 202.709 128.71 206.438 130.086 209.974L135.22 196.99C135.976 196.158 138.822 196.239 139.935 196.347C140.922 196.442 141.34 196.938 141.467 197.902C140.973 203.257 142.119 209.794 141.443 215.012C141.42 215.197 141.344 215.613 141.213 215.707C140.692 216.08 137.568 215.995 137.568 215.442V200.077L132.017 215.423C131.481 216.156 128.48 216.227 127.977 215.192L122.604 199.869V215.442H122.609Z" fill="#070505"/>
<path d="M61.9458 215.442C61.7673 216 58.1227 216.35 58.0992 214.984C58.3481 209.667 57.6107 203.773 58.0475 198.522C58.132 197.505 58.2354 196.565 59.4002 196.376C60.1235 196.258 61.9083 196.286 62.6738 196.357C64.1298 196.484 64.5901 196.858 65.1819 198.162L69.4278 209.974L74.5613 196.99C75.3175 196.158 78.1638 196.239 79.2769 196.347C79.8546 196.404 80.1552 196.447 80.4887 196.985L80.5967 215.234C80.4699 216.35 76.905 215.887 76.905 215.438V199.864L71.4145 215.064C70.7617 216.359 67.8685 216.241 67.2297 215.064L61.9411 199.864V215.438L61.9458 215.442Z" fill="#070505"/>
<path d="M163.598 203.172C164.316 201.556 165.073 199.741 165.951 198.219C166.829 196.702 166.862 196.149 168.825 196.149C170.455 196.149 171.15 196.272 170.399 197.95C169.229 200.549 167.294 203.045 166.247 205.748C167.205 208.66 169.877 211.742 170.817 214.573C170.953 214.979 171.033 215.319 170.976 215.754C169.614 215.872 168.266 216.251 166.965 215.561L163.081 208.329C162.677 208.329 160.179 214.757 159.305 215.461C158.323 216.255 156.539 215.92 155.402 215.75L155.552 214.573L160.305 205.748C159.869 204.505 155.468 197.316 155.604 196.683C155.74 196.05 159.216 195.993 159.812 196.56C160.277 196.962 163.283 203.404 163.588 203.172H163.598Z" fill="#070505"/>
<path d="M107.035 208.948C108.204 208.164 109.308 205.436 110.445 204.85C110.961 204.586 112.915 204.463 113.169 204.841C113.695 205.626 110.445 208.537 109.956 209.255C109.923 209.704 113.047 213.817 113.436 214.781C113.624 215.249 113.854 215.594 113.286 215.75C112.384 215.995 111.459 216.033 110.614 215.556L107.035 210.187V215.447C107.035 216.029 104.165 216.029 104.165 215.447V199.873C104.165 199.722 107.035 199.443 107.035 200.181V208.948Z" fill="#4693D9"/>
<path d="M98.4255 199.873V215.447C98.4255 215.839 95.7812 216.014 95.5839 215.419L95.6544 200.081C96.4434 199.363 97.4955 199.736 98.4255 199.878V199.873Z" fill="#4693D9"/>
<path d="M148.169 204.656C148.794 204.472 150.606 204.397 150.682 205.342L150.691 215.239C150.513 216.165 147.812 216.321 147.615 215.239C147.911 212.224 147.22 208.457 147.605 205.536C147.657 205.134 147.727 204.789 148.169 204.656Z" fill="#4693D9"/>
<path d="M89.8211 204.822V215.754C89.3843 215.872 86.9513 216.033 86.9513 215.447V204.827C86.9513 204.628 89.4171 204.501 89.8211 204.827V204.822Z" fill="#4693D9"/>
<path d="M148.376 200.124C149.766 199.793 150.997 200.176 150.884 201.806C150.79 203.172 149.705 203.347 148.55 203.158C146.971 202.903 147.018 200.445 148.376 200.124Z" fill="#4693D9"/>
<path d="M89.7693 200.332C90.1451 200.658 90.1357 202.548 89.7693 202.912C88.9944 203.697 86.599 203.347 86.7305 201.419C86.8385 199.878 89.0178 199.684 89.7646 200.332H89.7693Z" fill="#4693D9"/>
<path d="M136.136 146.044C135.859 144.89 134.253 143.151 133.731 141.345C133.661 141.109 133.243 139.445 133.243 139.341C133.243 138.916 133.59 138.675 133.665 138.302C133.741 137.928 133.614 137.536 133.731 137.129C134.126 135.782 135.309 133.452 136.559 132.757C137 132.512 139.565 131.737 140.142 131.618C141.166 131.406 141.006 131.959 141.194 132.015C141.368 132.072 141.575 131.987 141.664 132.015C145.586 133.476 150.161 138.434 152.401 141.936C154.261 144.838 154.984 147.008 155.815 150.042C156.233 151.564 155.97 151.763 156.003 153.143C156.003 153.228 156.501 153.275 156.426 154.613C156.233 158.11 154.782 161.447 152.64 163.995C151.184 165.729 149.508 167.336 148.014 169.038C147.836 169.241 146.004 172.077 145.558 171.614C145.558 171.382 145.703 171.17 145.684 170.928C145.403 167.521 145.013 164.051 144.318 160.795C143.702 157.926 142.387 155.738 141.049 153.256C139.917 151.158 138.794 148.969 137.268 147.06C137 146.724 136.587 146.289 136.131 146.242C136.112 146.181 136.145 146.1 136.131 146.034L136.136 146.044Z" fill="#EA1C24"/>
<path d="M136.136 146.043C134.84 145.542 133.797 143.222 133.332 141.955C132.303 139.133 132.256 136.378 134.295 133.986C134.915 133.258 135.399 133.225 135.939 132.752C136.22 132.507 137.592 131.023 137.714 130.994C138.24 130.881 139.687 130.952 140.25 131.079C140.485 131.131 141.777 131.566 141.669 132.025C141.579 131.991 141.368 132.077 141.199 132.025C141.011 131.963 141.171 131.415 140.147 131.628C139.569 131.746 137 132.526 136.563 132.767C135.314 133.461 134.13 135.792 133.736 137.139C133.618 137.54 133.745 137.947 133.67 138.311C133.595 138.675 133.247 138.925 133.247 139.351C133.247 139.455 133.67 141.118 133.736 141.355C134.253 143.16 135.859 144.9 136.141 146.053L136.136 146.043Z" fill="#9E4030"/>
<path d="M141.058 153.261C140.687 152.968 140.072 152.509 139.823 152.136C139.621 151.838 139.654 151.427 139.508 151.214C138.259 149.404 136.817 148.473 136.141 146.247C136.596 146.294 137.01 146.729 137.277 147.064C138.804 148.974 139.926 151.162 141.058 153.261Z" fill="#9E4030"/>
<path d="M156.43 96.7462C156.661 99.3174 156.773 101.912 157.046 104.479C157.375 107.598 158.516 111.086 157.407 114.125C156.628 116.271 154.571 118.2 152.236 118.408C143.115 119.23 132.787 117.779 123.539 118.398C120.885 118.129 118.706 115.614 118.157 113.09C117.569 110.392 118.621 106.662 118.899 103.836C119.542 97.2708 119.923 90.4505 119.753 83.8476C119.725 82.6944 118.988 82.1745 120.843 82.3304C123.896 82.5857 128.945 84.585 131.632 86.1211C136.418 88.8483 139.409 93.258 144.693 95.2526C148.502 96.6895 152.387 96.8927 156.426 96.7462H156.43Z" fill="#4693D9"/>
<path d="M142.848 63.382C144.036 63.141 150.724 63.1835 151.894 63.4671C153.937 63.9586 153.815 66.7095 152.016 67.0403C150.893 67.2483 143.731 67.2483 142.608 67.0403C140.701 66.6905 140.781 63.8074 142.848 63.3867V63.382Z" fill="#4693D9"/>
<path d="M142.434 74.5176H152.185C153.81 74.8862 153.819 77.6843 152.011 77.9679C149.216 78.4075 145.346 77.7032 142.434 77.9348C140.837 77.5756 140.837 74.8768 142.434 74.5176Z" fill="#4693D9"/>
<path d="M142.434 85.4499L152.011 85.4168C153.857 85.828 153.838 88.6119 152.011 88.9003C149.216 89.3398 145.346 88.6356 142.434 88.8672C140.837 88.508 140.837 85.8091 142.434 85.4499Z" fill="#4693D9"/>
</g>
<defs>
<clipPath id="clip0_93_548">
<rect width="171" height="216" fill="white"/>
</clipPath>
</defs>
</svg>
