<svg width="15" height="15" viewBox="0 0 15 15" fill="none" xmlns="http://www.w3.org/2000/svg">
<path d="M0.583313 14.7512C0.583313 11.8057 2.97113 9.41789 5.91665 9.41789C8.86218 9.41789 11.25 11.8057 11.25 14.7512H9.91665C9.91665 12.5421 8.12578 10.7512 5.91665 10.7512C3.70751 10.7512 1.91665 12.5421 1.91665 14.7512H0.583313ZM5.91665 8.75122C3.70665 8.75122 1.91665 6.96122 1.91665 4.75122C1.91665 2.54122 3.70665 0.751221 5.91665 0.751221C8.12665 0.751221 9.91665 2.54122 9.91665 4.75122C9.91665 6.96122 8.12665 8.75122 5.91665 8.75122ZM5.91665 7.41789C7.38998 7.41789 8.58331 6.22455 8.58331 4.75122C8.58331 3.27789 7.38998 2.08455 5.91665 2.08455C4.44331 2.08455 3.24998 3.27789 3.24998 4.75122C3.24998 6.22455 4.44331 7.41789 5.91665 7.41789ZM11.4391 9.88642C13.2929 10.722 14.5833 12.5859 14.5833 14.7512H13.25C13.25 13.1272 12.2822 11.7293 10.8918 11.1026L11.4391 9.88642ZM10.9808 2.36003C12.3129 2.90924 13.25 4.22029 13.25 5.75122C13.25 7.66469 11.7861 9.23469 9.91665 9.40295V8.06095C11.0478 7.89935 11.9166 6.92722 11.9166 5.75122C11.9166 4.83079 11.3844 4.03524 10.6106 3.65545L10.9808 2.36003Z" fill="#918F91"/>
</svg>
