<svg width="23" height="19" viewBox="0 0 23 19" fill="none" xmlns="http://www.w3.org/2000/svg">
<path d="M11.7503 0.75C17.1424 0.75 21.6284 4.62976 22.5689 9.75C21.6284 14.8702 17.1424 18.75 11.7503 18.75C6.35812 18.75 1.87215 14.8702 0.931641 9.75C1.87215 4.62976 6.35812 0.75 11.7503 0.75ZM11.7503 16.75C15.9859 16.75 19.6103 13.802 20.5277 9.75C19.6103 5.69803 15.9859 2.75 11.7503 2.75C7.5146 2.75 3.89022 5.69803 2.97278 9.75C3.89022 13.802 7.5146 16.75 11.7503 16.75ZM11.7503 14.25C9.26498 14.25 7.25026 12.2353 7.25026 9.75C7.25026 7.26472 9.26498 5.25 11.7503 5.25C14.2355 5.25 16.2503 7.26472 16.2503 9.75C16.2503 12.2353 14.2355 14.25 11.7503 14.25ZM11.7503 12.25C13.131 12.25 14.2503 11.1307 14.2503 9.75C14.2503 8.3693 13.131 7.25 11.7503 7.25C10.3696 7.25 9.25026 8.3693 9.25026 9.75C9.25026 11.1307 10.3696 12.25 11.7503 12.25Z" fill="#B2CBE3"/>
</svg>
