<svg width="40" height="39" viewBox="0 0 40 39" fill="none" xmlns="http://www.w3.org/2000/svg">
<rect x="0.966797" width="39" height="39" rx="19.5" fill="#4693D9"/>
<path d="M12.9668 27C12.9668 23.6863 15.6531 21 18.9668 21C22.2805 21 24.9668 23.6863 24.9668 27H23.4668C23.4668 24.5147 21.4521 22.5 18.9668 22.5C16.4815 22.5 14.4668 24.5147 14.4668 27H12.9668ZM18.9668 20.25C16.4805 20.25 14.4668 18.2362 14.4668 15.75C14.4668 13.2638 16.4805 11.25 18.9668 11.25C21.453 11.25 23.4668 13.2638 23.4668 15.75C23.4668 18.2362 21.453 20.25 18.9668 20.25ZM18.9668 18.75C20.6243 18.75 21.9668 17.4075 21.9668 15.75C21.9668 14.0925 20.6243 12.75 18.9668 12.75C17.3093 12.75 15.9668 14.0925 15.9668 15.75C15.9668 17.4075 17.3093 18.75 18.9668 18.75ZM25.1796 21.5271C27.2651 22.4671 28.7168 24.564 28.7168 27H27.2168C27.2168 25.173 26.128 23.6003 24.5639 22.8953L25.1796 21.5271ZM24.6639 13.0599C26.1626 13.6778 27.2168 15.1527 27.2168 16.875C27.2168 19.0276 25.5699 20.7939 23.4668 20.9832V19.4734C24.7393 19.2916 25.7168 18.198 25.7168 16.875C25.7168 15.8395 25.118 14.9445 24.2475 14.5173L24.6639 13.0599Z" fill="white"/>
</svg>
