<svg width="40" height="41" viewBox="0 0 40 41" fill="none" xmlns="http://www.w3.org/2000/svg">
<rect y="0.25" width="40" height="40" rx="20" fill="#E9FFF1"/>
<path d="M11.6667 28.5835C11.6667 24.9016 14.6514 21.9168 18.3333 21.9168C22.0152 21.9168 25 24.9016 25 28.5835H23.3333C23.3333 25.8221 21.0947 23.5835 18.3333 23.5835C15.5719 23.5835 13.3333 25.8221 13.3333 28.5835H11.6667ZM18.3333 21.0835C15.5708 21.0835 13.3333 18.846 13.3333 16.0835C13.3333 13.321 15.5708 11.0835 18.3333 11.0835C21.0958 11.0835 23.3333 13.321 23.3333 16.0835C23.3333 18.846 21.0958 21.0835 18.3333 21.0835ZM18.3333 19.4168C20.175 19.4168 21.6667 17.9252 21.6667 16.0835C21.6667 14.2418 20.175 12.7502 18.3333 12.7502C16.4917 12.7502 15 14.2418 15 16.0835C15 17.9252 16.4917 19.4168 18.3333 19.4168ZM25.2364 22.5025C27.5537 23.5469 29.1667 25.8768 29.1667 28.5835H27.5C27.5 26.5535 26.2902 24.8061 24.5523 24.0227L25.2364 22.5025ZM24.6635 13.0945C26.3287 13.781 27.5 15.4198 27.5 17.3335C27.5 19.7253 25.6702 21.6878 23.3333 21.8982V20.2207C24.7472 20.0187 25.8333 18.8035 25.8333 17.3335C25.8333 16.183 25.168 15.1885 24.2008 14.7138L24.6635 13.0945Z" fill="#36C275"/>
</svg>
