<svg width="15" height="15" viewBox="0 0 15 15" fill="none" xmlns="http://www.w3.org/2000/svg">
<path d="M11 5.16683H12.1667C12.4888 5.16683 12.75 5.428 12.75 5.75016V12.7502C12.75 13.0723 12.4888 13.3335 12.1667 13.3335H2.83333C2.51117 13.3335 2.25 13.0723 2.25 12.7502V5.75016C2.25 5.428 2.51117 5.16683 2.83333 5.16683H4V4.5835C4 2.6505 5.567 1.0835 7.5 1.0835C9.43299 1.0835 11 2.6505 11 4.5835V5.16683ZM6.91667 9.6774V11.0002H8.08333V9.6774C8.43205 9.47568 8.66667 9.09867 8.66667 8.66683C8.66667 8.02248 8.14435 7.50016 7.5 7.50016C6.85565 7.50016 6.33333 8.02248 6.33333 8.66683C6.33333 9.09867 6.56795 9.47568 6.91667 9.6774ZM9.83333 5.16683V4.5835C9.83333 3.29483 8.78864 2.25016 7.5 2.25016C6.21133 2.25016 5.16667 3.29483 5.16667 4.5835V5.16683H9.83333Z" fill="#A6A6A6"/>
</svg>
