<svg width="25" height="25" viewBox="0 0 25 25" fill="none" xmlns="http://www.w3.org/2000/svg">
<path d="M5.85608 17.25H20.0933V5.25H4.09326V18.6351L5.85608 17.25ZM6.54781 19.25L2.09326 22.75V4.25C2.09326 3.69772 2.54098 3.25 3.09326 3.25H21.0933C21.6456 3.25 22.0933 3.69772 22.0933 4.25V18.25C22.0933 18.8023 21.6456 19.25 21.0933 19.25H6.54781ZM11.0933 14.25H13.0933V16.25H11.0933V14.25ZM8.66057 9.06346C8.97963 7.45919 10.3953 6.25 12.0933 6.25C14.0263 6.25 15.5933 7.817 15.5933 9.75C15.5933 11.683 14.0263 13.25 12.0933 13.25H11.0933V11.25H12.0933C12.9217 11.25 13.5933 10.5784 13.5933 9.75C13.5933 8.92157 12.9217 8.25 12.0933 8.25C11.3656 8.25 10.7589 8.76823 10.6221 9.45577L8.66057 9.06346Z" fill="#4693D9"/>
</svg>
