<svg width="21" height="21" viewBox="0 0 21 21" fill="none" xmlns="http://www.w3.org/2000/svg">
<path d="M10.9253 1.9165L10.9248 2.9815L15.092 4.37143L18.1191 3.36241L18.6461 4.94355L16.1198 5.78567L18.6993 12.8789C17.7893 13.8266 16.5096 14.4165 15.092 14.4165C13.6745 14.4165 12.3948 13.8266 11.4848 12.8789L14.0632 5.78567L10.9248 4.739V16.0832H14.2587V17.7498H5.92538V16.0832H9.25818V4.739L6.11986 5.78567L8.69926 12.8789C7.78933 13.8266 6.50957 14.4165 5.09205 14.4165C3.67451 14.4165 2.39475 13.8266 1.48486 12.8789L4.0632 5.78567L1.53795 4.94355L2.065 3.36241L5.09205 4.37143L9.25818 2.9815L9.25868 1.9165H10.9253ZM15.092 7.8354L13.4599 12.3242C13.9499 12.5999 14.5082 12.7498 15.092 12.7498C15.6759 12.7498 16.2342 12.5999 16.7241 12.3242L15.092 7.8354ZM5.09205 7.8354L3.45996 12.3242C3.94989 12.5999 4.5082 12.7498 5.09205 12.7498C5.6759 12.7498 6.2342 12.5999 6.72412 12.3242L5.09205 7.8354Z" fill="#4693D9"/>
</svg>
