<svg width="21" height="21" viewBox="0 0 21 21" fill="none" xmlns="http://www.w3.org/2000/svg">
<g clip-path="url(#clip0_667_9212)">
<path d="M6.6053 18.2773H14.9386M10.772 3.27734V18.2773M3.27196 6.61068H4.93863C6.6053 6.61068 9.10529 5.77734 10.772 4.94401C12.4386 5.77734 14.9386 6.61068 16.6053 6.61068H18.272M14.1053 14.1107L16.6053 7.44401L19.1053 14.1107C18.3803 14.6523 17.5053 14.944 16.6053 14.944C15.7053 14.944 14.8303 14.6523 14.1053 14.1107ZM2.43863 14.1107L4.93863 7.44401L7.43863 14.1107C6.71363 14.6523 5.83863 14.944 4.93863 14.944C4.03863 14.944 3.16363 14.6523 2.43863 14.1107Z" stroke="#2E7FC9" stroke-width="2" stroke-linecap="round" stroke-linejoin="round"/>
</g>
<defs>
<clipPath id="clip0_667_9212">
<rect width="20" height="20" fill="white" transform="translate(0.771973 0.777344)"/>
</clipPath>
</defs>
</svg>
