<svg width="19" height="19" viewBox="0 0 19 19" fill="none" xmlns="http://www.w3.org/2000/svg">
<path d="M0.605286 9.63409C0.605286 8.84163 0.705844 8.07264 0.894906 7.33923C1.89432 7.39104 2.88639 6.89358 3.4211 5.96744C3.9554 5.04201 3.89067 3.93509 3.34723 3.0957C4.4402 2.02162 5.80125 1.21948 7.32081 0.798828C7.77564 1.6903 8.70248 2.30078 9.77195 2.30078C10.8414 2.30078 11.7683 1.6903 12.2231 0.798828C13.7427 1.21948 15.1037 2.02162 16.1967 3.0957C15.6532 3.93509 15.5885 5.04201 16.1228 5.96744C16.6575 6.89358 17.6496 7.39104 18.649 7.33923C18.8381 8.07264 18.9386 8.84163 18.9386 9.63409C18.9386 10.4266 18.8381 11.1955 18.649 11.929C17.6496 11.8772 16.6575 12.3747 16.1228 13.3008C15.5885 14.2262 15.6532 15.3331 16.1967 16.1725C15.1037 17.2466 13.7427 18.0487 12.2231 18.4694C11.7683 17.5779 10.8414 16.9674 9.77195 16.9674C8.70248 16.9674 7.77564 17.5779 7.32081 18.4694C5.80125 18.0487 4.4402 17.2466 3.34723 16.1725C3.89067 15.3331 3.9554 14.2262 3.4211 13.3008C2.88639 12.3747 1.89432 11.8772 0.894906 11.929C0.705844 11.1955 0.605286 10.4266 0.605286 9.63409ZM5.00882 12.3841C5.58641 13.3845 5.75198 14.5347 5.52612 15.6142C5.89992 15.8803 6.29783 16.1107 6.71477 16.3022C7.5369 15.5662 8.61622 15.1341 9.77195 15.1341C10.9277 15.1341 12.007 15.5662 12.8291 16.3022C13.246 16.1107 13.644 15.8803 14.0178 15.6142C13.7919 14.5347 13.9575 13.3845 14.5351 12.3841C15.1126 11.3837 16.0259 10.6653 17.0737 10.3211C17.0947 10.094 17.1053 9.86491 17.1053 9.63409C17.1053 9.40337 17.0947 9.1742 17.0737 8.94714C16.0259 8.60293 15.1126 7.88454 14.5351 6.88411C13.9575 5.88369 13.7919 4.73357 14.0178 3.65399C13.644 3.388 13.246 3.15754 12.8291 2.966C12.007 3.70201 10.9277 4.13411 9.77195 4.13411C8.61622 4.13411 7.5369 3.70201 6.71477 2.966C6.29783 3.15754 5.89992 3.388 5.52612 3.65399C5.75198 4.73357 5.58641 5.88369 5.00882 6.88411C4.43123 7.88454 3.51803 8.60293 2.47025 8.94714C2.44922 9.1742 2.43862 9.40337 2.43862 9.63409C2.43862 9.86491 2.44922 10.094 2.47025 10.3211C3.51803 10.6653 4.43123 11.3837 5.00882 12.3841ZM9.77195 12.3841C8.25313 12.3841 7.02195 11.1529 7.02195 9.63409C7.02195 8.11536 8.25313 6.88411 9.77195 6.88411C11.2908 6.88411 12.522 8.11536 12.522 9.63409C12.522 11.1529 11.2908 12.3841 9.77195 12.3841ZM9.77195 10.5508C10.2782 10.5508 10.6886 10.1404 10.6886 9.63409C10.6886 9.12782 10.2782 8.71743 9.77195 8.71743C9.26568 8.71743 8.85529 9.12782 8.85529 9.63409C8.85529 10.1404 9.26568 10.5508 9.77195 10.5508Z" fill="#878787"/>
</svg>
