<svg width="25" height="25" viewBox="0 0 25 25" fill="none" xmlns="http://www.w3.org/2000/svg">
<path d="M12.8487 22.7529C7.32579 22.7529 2.84863 18.2758 2.84863 12.7529C2.84863 7.23008 7.32579 2.75293 12.8487 2.75293C18.3715 2.75293 22.8487 7.23008 22.8487 12.7529C22.8487 18.2758 18.3715 22.7529 12.8487 22.7529ZM12.8487 20.7529C17.267 20.7529 20.8487 17.1712 20.8487 12.7529C20.8487 8.33465 17.267 4.75293 12.8487 4.75293C8.43035 4.75293 4.84863 8.33465 4.84863 12.7529C4.84863 17.1712 8.43035 20.7529 12.8487 20.7529ZM9.34863 14.7529H14.8487C15.1248 14.7529 15.3487 14.5291 15.3487 14.2529C15.3487 13.9768 15.1248 13.7529 14.8487 13.7529H10.8487C9.46792 13.7529 8.34863 12.6337 8.34863 11.2529C8.34863 9.87221 9.46792 8.75293 10.8487 8.75293H11.8487V6.75293H13.8487V8.75293H16.3487V10.7529H10.8487C10.5725 10.7529 10.3486 10.9768 10.3486 11.2529C10.3486 11.5291 10.5725 11.7529 10.8487 11.7529H14.8487C16.2294 11.7529 17.3487 12.8722 17.3487 14.2529C17.3487 15.6337 16.2294 16.7529 14.8487 16.7529H13.8487V18.7529H11.8487V16.7529H9.34863V14.7529Z" fill="#4693D9"/>
</svg>
