<svg width="17" height="17" viewBox="0 0 17 17" fill="none" xmlns="http://www.w3.org/2000/svg">
<path d="M8.25004 14.9168C4.56814 14.9168 1.58337 11.932 1.58337 8.25016C1.58337 4.56826 4.56814 1.5835 8.25004 1.5835C11.9319 1.5835 14.9167 4.56826 14.9167 8.25016C14.9167 11.932 11.9319 14.9168 8.25004 14.9168ZM8.25004 13.5835C11.1956 13.5835 13.5834 11.1957 13.5834 8.25016C13.5834 5.30464 11.1956 2.91683 8.25004 2.91683C5.30452 2.91683 2.91671 5.30464 2.91671 8.25016C2.91671 11.1957 5.30452 13.5835 8.25004 13.5835ZM8.91671 8.25016H11.5834V9.5835H7.58337V4.91683H8.91671V8.25016Z" fill="#918F91"/>
</svg>
