<svg width="17" height="17" viewBox="0 0 17 17" fill="none" xmlns="http://www.w3.org/2000/svg">
<g clip-path="url(#clip0_667_10388)">
<path d="M3.41669 14.7512C3.41669 11.8057 5.8045 9.41789 8.75002 9.41789C11.6956 9.41789 14.0834 11.8057 14.0834 14.7512H12.75C12.75 12.5421 10.9592 10.7512 8.75002 10.7512C6.54088 10.7512 4.75002 12.5421 4.75002 14.7512H3.41669ZM8.75002 8.75122C6.54002 8.75122 4.75002 6.96122 4.75002 4.75122C4.75002 2.54122 6.54002 0.751221 8.75002 0.751221C10.96 0.751221 12.75 2.54122 12.75 4.75122C12.75 6.96122 10.96 8.75122 8.75002 8.75122ZM8.75002 7.41789C10.2234 7.41789 11.4167 6.22455 11.4167 4.75122C11.4167 3.27789 10.2234 2.08455 8.75002 2.08455C7.27669 2.08455 6.08335 3.27789 6.08335 4.75122C6.08335 6.22455 7.27669 7.41789 8.75002 7.41789Z" fill="white"/>
</g>
<defs>
<clipPath id="clip0_667_10388">
<rect width="16" height="16" fill="white" transform="translate(0.75 0.0844727)"/>
</clipPath>
</defs>
</svg>
