<svg width="14" height="17" viewBox="0 0 14 17" fill="none" xmlns="http://www.w3.org/2000/svg">
<path d="M6.77197 2.35081L3.05966 6.06312C1.00941 8.1134 1.00941 11.4375 3.05966 13.4878C5.10991 15.538 8.43405 15.538 10.4842 13.4878C12.5345 11.4375 12.5345 8.1134 10.4842 6.06313L6.77197 2.35081ZM6.77197 0.229492L11.545 5.00246C14.181 7.6385 14.181 11.9124 11.545 14.5484C8.90887 17.1844 4.63504 17.1844 1.999 14.5484C-0.637037 11.9124 -0.637037 7.6385 1.999 5.00246L6.77197 0.229492ZM3.02197 9.7754H10.522C10.522 11.8465 8.84302 13.5254 6.77197 13.5254C4.70091 13.5254 3.02197 11.8465 3.02197 9.7754Z" fill="#4693D9"/>
</svg>
