<svg width="257" height="229" viewBox="0 0 257 229" fill="none" xmlns="http://www.w3.org/2000/svg">
<path d="M6.33647 220.477L1.09215 201.567H4.09286L7.77681 216.211H7.95224L11.7839 201.567H14.7569L18.5886 216.22H18.764L22.4387 201.567H25.4487L20.1951 220.477H17.3237L13.3443 206.313H13.1966L9.21715 220.477H6.33647ZM32.5442 220.763C31.147 220.763 29.9436 220.464 28.9341 219.867C27.9308 219.264 27.1552 218.418 26.6074 217.328C26.0658 216.232 25.7949 214.949 25.7949 213.478C25.7949 212.025 26.0658 210.745 26.6074 209.637C27.1552 208.529 27.9185 207.664 28.8972 207.043C29.882 206.421 31.0331 206.11 32.3503 206.11C33.1505 206.11 33.9261 206.242 34.677 206.507C35.428 206.772 36.102 207.187 36.699 207.754C37.2961 208.32 37.767 209.055 38.1117 209.96C38.4564 210.859 38.6287 211.951 38.6287 213.238V214.217H27.3553V212.148H35.9235C35.9235 211.422 35.7757 210.779 35.4803 210.219C35.1848 209.652 34.7694 209.206 34.2338 208.88C33.7045 208.554 33.0828 208.391 32.3688 208.391C31.5932 208.391 30.9161 208.581 30.3375 208.963C29.7651 209.339 29.3219 209.831 29.008 210.44C28.7002 211.044 28.5463 211.699 28.5463 212.407V214.023C28.5463 214.971 28.7125 215.777 29.0449 216.442C29.3835 217.107 29.8543 217.614 30.4576 217.965C31.0608 218.31 31.7656 218.482 32.5719 218.482C33.0951 218.482 33.5721 218.408 34.003 218.261C34.4339 218.107 34.8063 217.879 35.1202 217.577C35.4341 217.276 35.6742 216.903 35.8404 216.46L38.4533 216.931C38.244 217.701 37.8685 218.375 37.3269 218.953C36.7914 219.526 36.1174 219.972 35.3049 220.292C34.4985 220.606 33.5783 220.763 32.5442 220.763ZM44.4524 201.567V220.477H41.6918V201.567H44.4524ZM54.1401 220.763C52.7675 220.763 51.5856 220.452 50.5946 219.83C49.6098 219.202 48.8527 218.338 48.3233 217.236C47.794 216.134 47.5293 214.872 47.5293 213.45C47.5293 212.01 47.8001 210.739 48.3418 209.637C48.8835 208.529 49.6467 207.664 50.6316 207.043C51.6164 206.421 52.7767 206.11 54.1124 206.11C55.1896 206.11 56.1498 206.31 56.9931 206.71C57.8364 207.104 58.5165 207.658 59.0336 208.372C59.5568 209.086 59.8676 209.92 59.9661 210.874H57.2793C57.1316 210.21 56.793 209.637 56.2637 209.157C55.7405 208.677 55.0388 208.437 54.1586 208.437C53.3891 208.437 52.7151 208.64 52.1365 209.046C51.5641 209.446 51.1178 210.019 50.7978 210.763C50.4777 211.502 50.3176 212.376 50.3176 213.386C50.3176 214.42 50.4746 215.312 50.7885 216.063C51.1025 216.814 51.5456 217.396 52.1181 217.808C52.6967 218.221 53.3768 218.427 54.1586 218.427C54.6818 218.427 55.1557 218.331 55.5804 218.141C56.0113 217.944 56.3714 217.664 56.6607 217.3C56.9561 216.937 57.1623 216.5 57.2793 215.989H59.9661C59.8676 216.906 59.5691 217.725 59.0705 218.445C58.5719 219.165 57.9041 219.732 57.0669 220.144C56.236 220.557 55.2604 220.763 54.1401 220.763ZM68.892 220.763C67.5625 220.763 66.4022 220.458 65.4112 219.849C64.4202 219.239 63.6508 218.387 63.103 217.291C62.5552 216.196 62.2812 214.915 62.2812 213.45C62.2812 211.979 62.5552 210.693 63.103 209.591C63.6508 208.489 64.4202 207.634 65.4112 207.024C66.4022 206.415 67.5625 206.11 68.892 206.11C70.2216 206.11 71.3819 206.415 72.3729 207.024C73.3639 207.634 74.1333 208.489 74.6811 209.591C75.2289 210.693 75.5028 211.979 75.5028 213.45C75.5028 214.915 75.2289 216.196 74.6811 217.291C74.1333 218.387 73.3639 219.239 72.3729 219.849C71.3819 220.458 70.2216 220.763 68.892 220.763ZM68.9013 218.445C69.763 218.445 70.477 218.218 71.0433 217.762C71.6096 217.307 72.0282 216.7 72.299 215.943C72.576 215.186 72.7145 214.352 72.7145 213.441C72.7145 212.536 72.576 211.705 72.299 210.948C72.0282 210.185 71.6096 209.572 71.0433 209.111C70.477 208.649 69.763 208.418 68.9013 208.418C68.0334 208.418 67.3132 208.649 66.7408 209.111C66.1745 209.572 65.7528 210.185 65.4759 210.948C65.205 211.705 65.0696 212.536 65.0696 213.441C65.0696 214.352 65.205 215.186 65.4759 215.943C65.7528 216.7 66.1745 217.307 66.7408 217.762C67.3132 218.218 68.0334 218.445 68.9013 218.445ZM78.5843 220.477V206.295H81.2342V208.603H81.4096C81.7051 207.821 82.1883 207.212 82.8592 206.775C83.5301 206.332 84.3334 206.11 85.269 206.11C86.2169 206.11 87.0109 206.332 87.6511 206.775C88.2974 207.218 88.7744 207.827 89.0822 208.603H89.2299C89.5685 207.846 90.1071 207.243 90.8457 206.793C91.5843 206.338 92.4645 206.11 93.4863 206.11C94.7728 206.11 95.8223 206.513 96.6348 207.32C97.4534 208.126 97.8627 209.342 97.8627 210.967V220.477H95.1021V211.225C95.1021 210.265 94.8405 209.569 94.3173 209.138C93.7941 208.708 93.1693 208.492 92.443 208.492C91.5443 208.492 90.8457 208.769 90.3471 209.323C89.8485 209.871 89.5993 210.576 89.5993 211.438V220.477H86.8478V211.05C86.8478 210.28 86.6078 209.662 86.1277 209.194C85.6476 208.726 85.0228 208.492 84.2534 208.492C83.7302 208.492 83.247 208.631 82.8038 208.908C82.3668 209.179 82.0128 209.557 81.742 210.043C81.4773 210.53 81.345 211.093 81.345 211.733V220.477H78.5843ZM107.675 220.763C106.278 220.763 105.074 220.464 104.065 219.867C103.062 219.264 102.286 218.418 101.738 217.328C101.197 216.232 100.926 214.949 100.926 213.478C100.926 212.025 101.197 210.745 101.738 209.637C102.286 208.529 103.049 207.664 104.028 207.043C105.013 206.421 106.164 206.11 107.481 206.11C108.281 206.11 109.057 206.242 109.808 206.507C110.559 206.772 111.233 207.187 111.83 207.754C112.427 208.32 112.898 209.055 113.243 209.96C113.587 210.859 113.76 211.951 113.76 213.238V214.217H102.486V212.148H111.054C111.054 211.422 110.907 210.779 110.611 210.219C110.316 209.652 109.9 209.206 109.365 208.88C108.835 208.554 108.214 208.391 107.5 208.391C106.724 208.391 106.047 208.581 105.468 208.963C104.896 209.339 104.453 209.831 104.139 210.44C103.831 211.044 103.677 211.699 103.677 212.407V214.023C103.677 214.971 103.843 215.777 104.176 216.442C104.514 217.107 104.985 217.614 105.588 217.965C106.192 218.31 106.896 218.482 107.703 218.482C108.226 218.482 108.703 218.408 109.134 218.261C109.565 218.107 109.937 217.879 110.251 217.577C110.565 217.276 110.805 216.903 110.971 216.46L113.584 216.931C113.375 217.701 112.999 218.375 112.458 218.953C111.922 219.526 111.248 219.972 110.436 220.292C109.629 220.606 108.709 220.763 107.675 220.763ZM130.324 206.295V208.511H122.577V206.295H130.324ZM124.654 202.897H127.415V216.312C127.415 216.848 127.495 217.251 127.655 217.522C127.815 217.787 128.021 217.968 128.274 218.067C128.532 218.159 128.812 218.205 129.114 218.205C129.336 218.205 129.529 218.19 129.696 218.159C129.862 218.128 129.991 218.104 130.083 218.085L130.582 220.366C130.422 220.427 130.194 220.489 129.899 220.55C129.603 220.618 129.234 220.655 128.791 220.661C128.065 220.674 127.387 220.544 126.76 220.273C126.132 220.003 125.624 219.584 125.236 219.018C124.848 218.451 124.654 217.741 124.654 216.885V202.897ZM139.199 220.763C137.869 220.763 136.709 220.458 135.718 219.849C134.727 219.239 133.957 218.387 133.41 217.291C132.862 216.196 132.588 214.915 132.588 213.45C132.588 211.979 132.862 210.693 133.41 209.591C133.957 208.489 134.727 207.634 135.718 207.024C136.709 206.415 137.869 206.11 139.199 206.11C140.528 206.11 141.689 206.415 142.68 207.024C143.671 207.634 144.44 208.489 144.988 209.591C145.536 210.693 145.809 211.979 145.809 213.45C145.809 214.915 145.536 216.196 144.988 217.291C144.44 218.387 143.671 219.239 142.68 219.849C141.689 220.458 140.528 220.763 139.199 220.763ZM139.208 218.445C140.07 218.445 140.784 218.218 141.35 217.762C141.916 217.307 142.335 216.7 142.606 215.943C142.883 215.186 143.021 214.352 143.021 213.441C143.021 212.536 142.883 211.705 142.606 210.948C142.335 210.185 141.916 209.572 141.35 209.111C140.784 208.649 140.07 208.418 139.208 208.418C138.34 208.418 137.62 208.649 137.047 209.111C136.481 209.572 136.059 210.185 135.782 210.948C135.512 211.705 135.376 212.536 135.376 213.441C135.376 214.352 135.512 215.186 135.782 215.943C136.059 216.7 136.481 217.307 137.047 217.762C137.62 218.218 138.34 218.445 139.208 218.445ZM155.993 201.567H159.456L165.476 216.266H165.697L171.717 201.567H175.18V220.477H172.465V206.793H172.29L166.713 220.449H164.46L158.883 206.784H158.708V220.477H155.993V201.567ZM179.106 220.477V206.295H181.866V220.477H179.106ZM180.5 204.107C180.02 204.107 179.607 203.946 179.263 203.626C178.924 203.3 178.755 202.912 178.755 202.463C178.755 202.008 178.924 201.62 179.263 201.3C179.607 200.973 180.02 200.81 180.5 200.81C180.98 200.81 181.389 200.973 181.728 201.3C182.073 201.62 182.245 202.008 182.245 202.463C182.245 202.912 182.073 203.3 181.728 203.626C181.389 203.946 180.98 204.107 180.5 204.107ZM188.341 201.567V220.477H185.58V201.567H188.341ZM194.594 215.666L194.576 212.296H195.056L200.706 206.295H204.012L197.567 213.127H197.133L194.594 215.666ZM192.055 220.477V201.567H194.816V220.477H192.055ZM201.011 220.477L195.933 213.737L197.835 211.807L204.4 220.477H201.011ZM206.749 201.567H210.212L216.232 216.266H216.453L222.473 201.567H225.935V220.477H223.221V206.793H223.045L217.469 220.449H215.216L209.639 206.784H209.464V220.477H206.749V201.567ZM229.862 220.477V206.295H232.622V220.477H229.862ZM231.256 204.107C230.776 204.107 230.363 203.946 230.019 203.626C229.68 203.3 229.511 202.912 229.511 202.463C229.511 202.008 229.68 201.62 230.019 201.3C230.363 200.973 230.776 200.81 231.256 200.81C231.736 200.81 232.145 200.973 232.484 201.3C232.829 201.62 233.001 202.008 233.001 202.463C233.001 202.912 232.829 203.3 232.484 203.626C232.145 203.946 231.736 204.107 231.256 204.107ZM238.515 206.295L241.645 211.816L244.803 206.295H247.822L243.4 213.386L247.859 220.477H244.84L241.645 215.177L238.46 220.477H235.431L239.845 213.386L235.487 206.295H238.515ZM254.137 201.567L253.897 215.038H251.34L251.1 201.567H254.137ZM252.623 220.652C252.112 220.652 251.675 220.473 251.312 220.116C250.949 219.753 250.77 219.316 250.777 218.805C250.77 218.301 250.949 217.87 251.312 217.513C251.675 217.15 252.112 216.968 252.623 216.968C253.122 216.968 253.553 217.15 253.916 217.513C254.279 217.87 254.464 218.301 254.47 218.805C254.464 219.144 254.374 219.455 254.202 219.738C254.036 220.015 253.814 220.237 253.537 220.403C253.26 220.569 252.956 220.652 252.623 220.652Z" fill="#4693D9"/>
<circle cx="213.9" cy="33.8" r="6.76" fill="#4693D9"/>
<ellipse cx="52.7" cy="10.4" rx="10.92" ry="10.4" fill="#4693D9"/>
<ellipse cx="46.9798" cy="141.96" rx="5.2" ry="5.72" fill="#4693D9"/>
<ellipse cx="201.42" cy="166.4" rx="2.6" ry="2.08" fill="#4693D9"/>
<g filter="url(#filter0_d_667_10272)">
<rect x="86.5" y="74.8801" width="85.28" height="85.28" rx="42.64" fill="#4693D9"/>
</g>
<path d="M116.112 118.112L125.192 126.996L143.354 109.229" stroke="white" stroke-width="6.24" stroke-linecap="round" stroke-linejoin="round"/>
<defs>
<filter id="filter0_d_667_10272" x="55.3" y="54.0801" width="147.68" height="147.68" filterUnits="userSpaceOnUse" color-interpolation-filters="sRGB">
<feFlood flood-opacity="0" result="BackgroundImageFix"/>
<feColorMatrix in="SourceAlpha" type="matrix" values="0 0 0 0 0 0 0 0 0 0 0 0 0 0 0 0 0 0 127 0" result="hardAlpha"/>
<feOffset dy="10.4"/>
<feGaussianBlur stdDeviation="15.6"/>
<feColorMatrix type="matrix" values="0 0 0 0 0.27451 0 0 0 0 0.576471 0 0 0 0 0.85098 0 0 0 0.49 0"/>
<feBlend mode="normal" in2="BackgroundImageFix" result="effect1_dropShadow_667_10272"/>
<feBlend mode="normal" in="SourceGraphic" in2="effect1_dropShadow_667_10272" result="shape"/>
</filter>
</defs>
</svg>
